<?xml version="1.0" encoding="UTF-8" standalone="no"?>
<svg
   xmlns:dc="http://purl.org/dc/elements/1.1/"
   xmlns:cc="http://creativecommons.org/ns#"
   xmlns:rdf="http://www.w3.org/1999/02/22-rdf-syntax-ns#"
   xmlns:svg="http://www.w3.org/2000/svg"
   xmlns="http://www.w3.org/2000/svg"
   xmlns:sodipodi="http://sodipodi.sourceforge.net/DTD/sodipodi-0.dtd"
   xmlns:inkscape="http://www.inkscape.org/namespaces/inkscape"
   height="152.379mm"
   width="130.288mm"
   viewBox="0 0 461.65048 539.92704"
   id="svg4348"
   version="1.1"
   inkscape:version="0.91 r13725"
   sodipodi:docname="yarf.svg">
  <metadata
     id="metadata4520">
    <rdf:RDF>
      <cc:Work
         rdf:about="">
        <dc:format>image/svg+xml</dc:format>
        <dc:type
           rdf:resource="http://purl.org/dc/dcmitype/StillImage" />
        <dc:title></dc:title>
      </cc:Work>
    </rdf:RDF>
  </metadata>
  <defs
     id="defs4518" />
  <sodipodi:namedview
     pagecolor="#ffffff"
     bordercolor="#666666"
     borderopacity="1"
     objecttolerance="10"
     gridtolerance="10"
     guidetolerance="10"
     inkscape:pageopacity="0"
     inkscape:pageshadow="2"
     inkscape:window-width="1916"
     inkscape:window-height="1125"
     id="namedview4516"
     showgrid="false"
     inkscape:zoom="1.3083278"
     inkscape:cx="165.8025"
     inkscape:cy="184.29816"
     inkscape:window-x="1920"
     inkscape:window-y="73"
     inkscape:window-maximized="0"
     inkscape:current-layer="g5533" />
  <g
     transform="matrix(-1,0,0,1,623.41236,-248.822)"
     id="g4350">
    <g
       transform="matrix(-1.25,0,0,-1.25,232.219,530.113)"
       id="g4352"
       inkscape:export-xdpi="89"
       inkscape:export-ydpi="89">
      <path
         d="m 0,0 c 0,0 11.507,-0.41 21.489,3.783 9.983,4.192 23.651,8.014 21.389,22.578 -1.391,8.955 -22.921,4.354 -22.921,4.354 0,0 -15.763,-5.819 -26.229,-5.227"
         id="path4354"
         inkscape:connector-curvature="0"
         style="fill:#f4d6b9" />
    </g>
    <g
       transform="matrix(-1.25,0,0,-1.25,232.219,531.988)"
       id="g4356"
       inkscape:export-xdpi="89"
       inkscape:export-ydpi="89">
      <path
         d="m 0,0 c 11.194,-0.319 21.678,3.307 31.696,7.961 4.585,2.129 8.774,5.082 11.26,9.573 1.95,3.521 2.846,10.012 0.207,13.404 -4.627,5.948 -15.523,4.092 -21.917,3.038 -9.364,-1.545 -17.688,-5.812 -27.518,-5.488 -1.936,0.064 -1.93,-2.936 0,-3 14.632,-0.483 28.062,8.833 42.766,5.917 6.05,-1.2 6.041,-7.563 3.871,-12.357 C 38.331,14.552 33.372,12.033 29.133,10.063 19.953,5.799 10.229,2.708 0,3 -1.936,3.056 -1.931,0.055 0,0"
         id="path4358"
         inkscape:connector-curvature="0"
         style="fill:#1d1d1d" />
    </g>
    <g
       transform="matrix(-1.25,0,0,-1.25,362.313,286.957)"
       id="g4360"
       style="fill:#0e6655;fill-opacity:1"
       inkscape:export-xdpi="89"
       inkscape:export-ydpi="89">
      <path
         d="m 0,0 c 0,0 0.25,26.25 14.25,26 14,-0.25 8.25,-30.5 8.25,-30.5"
         id="path4362"
         inkscape:connector-curvature="0"
         style="fill:#0e6655;fill-opacity:1" />
    </g>
    <g
       transform="matrix(-1.25,0,0,-1.25,360.438,286.957)"
       id="g4364"
       inkscape:export-xdpi="89"
       inkscape:export-ydpi="89">
      <path
         d="M 0,0 C 0.109,8.048 2.706,27.261 14.663,24.198 23.697,21.883 20.776,2.439 19.554,-4.101 19.2,-5.992 22.091,-6.799 22.446,-4.899 24.132,4.118 26.798,24.186 14.735,27.276 0.778,30.852 -2.873,9.36 -3,0 -3.026,-1.936 -0.026,-1.933 0,0"
         id="path4366"
         inkscape:connector-curvature="0"
         style="fill:#1d1d1d" />
    </g>
    <g
       transform="matrix(-1.25,0,0,-1.25,354.566,741.752)"
       id="g4368"
       inkscape:export-xdpi="89"
       inkscape:export-ydpi="89">
      <path
         d="M 0,0 C 0,0 19.75,-34.123 30.371,-27.438 40.993,-20.752 16.677,8.043 16.677,8.043"
         id="path4370"
         inkscape:connector-curvature="0"
         style="fill:#f4d6b9" />
    </g>
    <g
       transform="matrix(-1.25,0,0,-1.25,356.185,742.698)"
       id="g4372"
       inkscape:export-xdpi="89"
       inkscape:export-ydpi="89">
      <path
         d="m 0,0 c 3.529,-6.072 7.606,-11.876 12.067,-17.296 4.323,-5.251 12.047,-14.278 19.818,-10.98 7.744,3.287 2.416,14.752 -0.111,19.614 C 28.34,-2.055 23.823,4.165 19.032,9.86 17.785,11.343 15.675,9.209 16.911,7.739 20.755,3.17 40.995,-22.507 29.609,-25.94 22.943,-27.95 14.604,-15.867 11.366,-11.611 8.187,-7.433 5.229,-3.027 2.59,1.514 1.619,3.186 -0.975,1.676 0,0"
         id="path4374"
         inkscape:connector-curvature="0"
         style="fill:#1d1d1d" />
    </g>
    <g
       transform="matrix(-1.25,0,0,-1.25,568.563,661.019)"
       id="g4376"
       style="fill:#0e6655;fill-opacity:1"
       inkscape:export-xdpi="89"
       inkscape:export-ydpi="89">
      <path
         d="m 0,0 c -13.25,1.5 -13.25,3.25 -20,1.5 -6.75,-1.75 -25,-13 -18,-18.25 7,-5.25 7.75,-7 17,-5.5 9.25,1.5 28.5,5.75 28.5,5.75"
         id="path4378"
         inkscape:connector-curvature="0"
         style="fill:#0e6655;fill-opacity:1" />
    </g>
    <g
       transform="matrix(-1.25,0,0,-1.25,568.563,659.144)"
       id="g4380"
       inkscape:export-xdpi="89"
       inkscape:export-ydpi="89">
      <path
         d="m 0,0 c -8.839,1.056 -16.012,3.633 -24.489,-0.101 -5.379,-2.369 -17.404,-8.626 -16.509,-16.003 0.433,-3.566 5.612,-6.176 8.257,-7.884 3.943,-2.545 8.737,-1.774 13.097,-1.049 9.235,1.532 18.403,3.576 27.543,5.591 1.889,0.416 1.087,3.308 -0.798,2.892 -6.076,-1.339 -12.164,-2.622 -18.265,-3.846 -4.693,-0.943 -9.457,-2.021 -14.24,-2.349 -4.784,-0.329 -8.702,3.098 -12.103,6.053 -4.713,4.094 13.849,13.815 16.56,14.83 C -14.272,0.633 -6.766,-2.191 0,-3 1.918,-3.229 1.896,-0.227 0,0"
         id="path4382"
         inkscape:connector-curvature="0"
         style="fill:#1d1d1d" />
    </g>
    <g
       transform="matrix(-1.25,0,0,-1.25,167.181,387.779)"
       id="g4384"
       inkscape:export-xdpi="89"
       inkscape:export-ydpi="89">
      <path
         d="m 0,0 c 0,-23.748 -20.283,-43 -45.303,-43 -25.019,0 -45.302,19.252 -45.302,43 0,23.748 20.283,43 45.302,43 C -20.283,43 0,23.748 0,0"
         id="path4386"
         inkscape:connector-curvature="0"
         style="fill:#ffffff" />
    </g>
    <g
       transform="matrix(-1.25,0,0,-1.25,169.056,387.779)"
       id="g4388"
       inkscape:export-xdpi="89"
       inkscape:export-ydpi="89">
      <path
         d="M 0,0 C -0.391,-23.821 -20.633,-41.158 -43.803,-41.5 -66.976,-41.842 -87.223,-23.31 -87.605,0 -87.996,23.821 -66.38,41.167 -43.803,41.5 -20.63,41.842 -0.383,23.31 0,0 0.031,-1.933 3.032,-1.936 3,0 2.647,21.477 -12.946,38.792 -33.596,43.436 -54.46,48.127 -76.709,37.734 -86.293,18.672 c -9.5,-18.894 -2.534,-41.22 13.698,-53.747 16.85,-13.002 42.528,-12.397 58.927,1.036 C -3.303,-25.548 2.779,-13.431 3,0 3.032,1.936 0.031,1.933 0,0"
         id="path4390"
         inkscape:connector-curvature="0"
         style="fill:#1d1d1d" />
    </g>
    <g
       transform="matrix(-1.25,0,0,-1.25,167.181,387.175)"
       id="g4392"
       inkscape:export-xdpi="89"
       inkscape:export-ydpi="89">
      <path
         d="m 0,0 c 0,-6.262 -5.223,-11.338 -11.666,-11.338 -6.443,0 -11.666,5.076 -11.666,11.338 0,6.262 5.223,11.338 11.666,11.338 C -5.223,11.338 0,6.262 0,0"
         id="path4394"
         inkscape:connector-curvature="0"
         style="fill:#1d1d1d" />
    </g>
    <g
       transform="matrix(-1.25,0,0,-1.25,167.181,387.175)"
       id="g4396"
       inkscape:export-xdpi="89"
       inkscape:export-ydpi="89">
      <path
         d="m 0,0 c 0,-6.262 -5.223,-11.338 -11.666,-11.338 -6.443,0 -11.666,5.076 -11.666,11.338 0,6.262 5.223,11.338 11.666,11.338 C -5.223,11.338 0,6.262 0,0 Z"
         stroke-miterlimit="10"
         id="path4398"
         inkscape:connector-curvature="0"
         style="fill:none;stroke:#2b2b2a;stroke-miterlimit:10" />
    </g>
    <g
       transform="matrix(-1.25,0,0,-1.25,178.226,386.112)"
       id="g4400"
       inkscape:export-xdpi="89"
       inkscape:export-ydpi="89">
      <path
         d="m 0,0 c 0,-2.039 -1.658,-3.691 -3.705,-3.691 -2.047,0 -3.707,1.652 -3.707,3.691 0,2.038 1.66,3.691 3.707,3.691 C -1.658,3.691 0,2.038 0,0"
         id="path4402"
         inkscape:connector-curvature="0"
         style="fill:#ffffff" />
    </g>
    <g
       transform="matrix(-1.25,0,0,-1.25,178.226,386.112)"
       id="g4404"
       inkscape:export-xdpi="89"
       inkscape:export-ydpi="89">
      <path
         d="m 0,0 c 0,-2.039 -1.658,-3.691 -3.705,-3.691 -2.047,0 -3.707,1.652 -3.707,3.691 0,2.038 1.66,3.691 3.707,3.691 C -1.658,3.691 0,2.038 0,0 Z"
         stroke-miterlimit="10"
         id="path4406"
         inkscape:connector-curvature="0"
         style="fill:none;stroke:#2b2b2a;stroke-miterlimit:10" />
    </g>
    <g
       transform="matrix(-1.25,0,0,-1.25,553.109,395.707)"
       id="g4408"
       style="fill:#0e6655;fill-opacity:1"
       inkscape:export-xdpi="89"
       inkscape:export-ydpi="89">
      <path
         d="m 0,0 c 0.909,13.007 22,58 58,74 36,16 50,16 85,19 35,3 88,-28 98,-41 C 251,39 258,27.203 260,9.602 262,-8 262,-16 265,-34 c 3,-18 -1,-87 -12,-113 -7.273,-17.191 -18.481,-59.741 -42.876,-92.958 C 197.625,-256.977 181.665,-271.546 161,-279 c -61,-22 -97.007,-9.358 -106,-9 -25.896,1.032 -31.273,8.471 -61,44 -17.988,21.5 -20.863,47.24 -20.863,65.25 0,21.875 30,73.75 31,103.75 C 5.915,-21.646 -2.47,-35.333 0,0"
         id="path4410"
         inkscape:connector-curvature="0"
         style="fill:#0e6655;fill-opacity:1" />
    </g>
    <g
       transform="matrix(-1.25,0,0,-1.25,551.234,395.707)"
       id="g4412"
       inkscape:export-xdpi="89"
       inkscape:export-ydpi="89">
      <path
         d="m 0,0 c 0.554,6.49 3.569,12.977 6.315,18.772 4.347,9.174 9.878,17.821 16.185,25.764 7.116,8.963 15.551,16.904 25.208,23.067 11.1,7.083 24.286,11.676 36.812,15.543 10.639,3.286 21.59,5.08 32.645,6.234 11.484,1.199 23.398,2.933 34.946,2.083 22.343,-1.644 44.478,-11.832 63.522,-23.064 7.174,-4.232 14.353,-8.908 20.35,-14.732 7.848,-7.624 14.003,-18.798 17.641,-29.007 4.459,-12.512 4.448,-26.386 5.778,-39.484 0.952,-9.368 2.954,-18.618 3.39,-28.028 0.897,-19.392 -0.691,-39.077 -2.952,-58.323 -1.218,-10.367 -2.841,-20.715 -5.245,-30.877 -1.794,-7.582 -4.707,-14.604 -7.387,-21.884 -17.021,-46.268 -35.461,-101.959 -85.116,-122.476 -23.397,-9.668 -49.801,-14.534 -75.095,-13.972 -7.486,0.167 -14.941,0.954 -22.329,2.155 -4.076,0.663 -8.13,1.596 -12.266,1.777 -7.768,0.342 -15.399,1.591 -22.243,5.449 -7.67,4.323 -13.743,11.33 -19.495,17.845 -9.356,10.598 -19.419,21.365 -26.254,33.797 -6.259,11.383 -9.402,24.306 -10.673,37.155 -0.893,9.024 -0.79,17.486 1.573,26.255 2.684,9.962 6.614,19.601 10.371,29.193 7.584,19.362 17.076,39.714 18.412,60.751 0.933,14.696 0.733,30.022 -2.108,44.525 C -0.1,-20.842 -0.732,-10.881 0,0 c 0.13,1.932 -2.871,1.919 -3,0 -0.492,-7.303 -0.777,-14.658 0.172,-21.937 0.617,-4.728 1.807,-9.356 2.597,-14.055 3.285,-19.54 2.865,-40.991 -2.534,-60.046 -6.08,-21.454 -15.919,-41.611 -22.894,-62.759 -6.072,-18.411 -4.82,-37.458 0.757,-55.951 3.779,-12.534 10.491,-23.313 18.831,-33.29 7.63,-9.126 15.108,-18.504 23.615,-26.841 5.045,-4.946 10.69,-9.116 17.339,-11.608 6.441,-2.415 13.124,-2.39 19.853,-3.115 12.756,-1.373 24.943,-3.901 37.898,-3.828 24.827,0.141 50.791,5.632 73.538,15.515 46.587,20.243 66.409,73.962 82.161,118.271 2.579,7.254 5.728,14.317 7.84,21.725 2.668,9.353 4.26,19.023 5.619,28.639 2.807,19.851 4.316,40.04 4.16,60.093 -0.059,7.746 -0.995,15.096 -2.122,22.745 -1.864,12.654 -2.254,25.478 -4.093,38.128 -2.813,19.36 -13.248,38.319 -28.902,50.225 -16.349,12.435 -35.841,21.731 -55.394,27.823 -9.839,3.066 -20.163,5.099 -30.5,4.952 C 133.159,94.519 121.036,92.983 109.35,91.473 95.016,89.622 81.301,85.721 67.871,80.423 53.24,74.651 40.412,67.59 29.161,56.48 19.649,47.089 11.838,35.887 5.625,24.085 1.77,16.763 -2.286,8.373 -3,0 -3.165,-1.929 -0.163,-1.913 0,0"
         id="path4414"
         inkscape:connector-curvature="0"
         style="fill:#1d1d1d" />
    </g>
    <g
       transform="matrix(-1.25,0,0,-1.25,516.063,741.331)"
       id="g4416"
       inkscape:export-xdpi="89"
       inkscape:export-ydpi="89">
      <path
         d="M 0,0 C 0,0 -10.5,-31.75 5.5,-33.5 21.5,-35.25 23,-4.25 23,-4.25"
         id="path4418"
         inkscape:connector-curvature="0"
         style="fill:#f4d6b9" />
    </g>
    <g
       transform="matrix(-1.25,0,0,-1.25,517.871,740.833)"
       id="g4420"
       inkscape:export-xdpi="89"
       inkscape:export-ydpi="89">
      <path
         d="m 0,0 c -3.175,-9.697 -8.658,-33.092 6.547,-35.345 14.919,-2.21 18.851,20.091 19.399,30.697 0.1,1.934 -2.9,1.924 -3,0 C 22.472,-13.827 19.385,-34.236 6.483,-32.324 -5.52,-30.546 0.517,-8.054 2.893,-0.797 3.497,1.047 0.599,1.83 0,0"
         id="path4422"
         inkscape:connector-curvature="0"
         style="fill:#1d1d1d" />
    </g>
    <g
       transform="matrix(-1.25,0,0,-1.25,520.048,735.906)"
       id="g4424"
       style="fill:#0e6655;fill-opacity:1"
       inkscape:export-xdpi="89"
       inkscape:export-ydpi="89">
      <path
         d="m 0,0 c 0,0 2.362,-11.875 7.241,-15.042 0,0 0.88,8.5 1.713,8.833 0.834,0.333 12.167,-8.999 10.5,-10.333 -1.666,-1.334 9.688,5.904 9.677,9.202"
         id="path4426"
         inkscape:connector-curvature="0"
         style="fill:#0e6655;fill-opacity:1" />
    </g>
    <g
       transform="matrix(-1.25,0,0,-1.25,521.855,736.404)"
       id="g4428"
       inkscape:export-xdpi="89"
       inkscape:export-ydpi="89">
      <path
         d="m 0,0 c 1.155,-5.636 3.161,-12.342 7.931,-15.938 1.009,-0.762 2.152,0.308 2.257,1.294 0.155,1.469 0.348,2.933 0.566,4.393 0.137,0.912 0.317,1.813 0.52,2.711 0.219,0.975 -1.292,0.458 0.16,-0.537 1.249,-0.857 8.099,-7.276 8.254,-7.14 -0.371,-0.324 -0.558,-0.992 -0.386,-1.459 0.003,-0.009 0.006,-0.016 0.009,-0.025 0.351,-0.952 1.283,-1.345 2.204,-0.897 3.521,1.714 9.897,6.1 10.509,10.258 0.279,1.892 -2.612,2.705 -2.893,0.797 -0.485,-3.291 -6.317,-7.095 -9.131,-8.464 0.735,-0.299 1.469,-0.597 2.204,-0.896 0.304,-0.826 -0.598,-1.88 0.137,-0.78 0.209,0.313 0.203,0.699 0.215,1.057 0.034,1.053 -0.898,2.17 -1.528,2.906 -2.35,2.747 -5.161,5.112 -8.08,7.233 -5.482,3.985 -5.395,-5.705 -5.76,-9.157 0.752,0.432 1.504,0.864 2.256,1.295 C 5.419,-10.313 3.864,-3.938 2.893,0.797 2.504,2.691 -0.387,1.888 0,0"
         id="path4430"
         inkscape:connector-curvature="0"
         style="fill:#1d1d1d" />
    </g>
    <g
       transform="matrix(-1.25,0,0,-1.25,358.021,720.684)"
       id="g4432"
       style="fill:#009777;fill-opacity:1"
       inkscape:export-xdpi="89"
       inkscape:export-ydpi="89">
      <path
         d="m 0,0 c -20.667,11.114 -21.145,27.75 -5,48.447 11.865,15.212 25.333,30.333 32.732,74 3.933,23.208 26.819,50.574 48.043,48.953 C 97,169.78 106.981,147.237 99.206,125.646 91.43,104.056 63.099,21.169 42.716,10.475 42.716,10.475 18.798,-10.109 0,0"
         id="path4434"
         inkscape:connector-curvature="0"
         style="fill:#009777;fill-opacity:1" />
    </g>
    <g
       transform="matrix(-1.25,0,0,-1.25,295.931,400.707)"
       id="g4436"
       inkscape:export-xdpi="89"
       inkscape:export-ydpi="89">
      <path
         d="m 0,0 c 0,-28.167 -24.387,-51 -54.469,-51 -30.083,0 -54.47,22.833 -54.47,51 0,28.167 24.387,51 54.47,51 C -24.387,51 0,28.167 0,0"
         id="path4438"
         inkscape:connector-curvature="0"
         style="fill:#ffffff" />
    </g>
    <g
       transform="matrix(-1.25,0,0,-1.25,297.806,400.707)"
       id="g4440"
       inkscape:export-xdpi="89"
       inkscape:export-ydpi="89">
      <path
         d="m 0,0 c -0.349,-24.958 -19.498,-44.272 -43.423,-48.705 -24.459,-4.532 -50.443,8.91 -59.525,32.251 -9.017,23.172 2.986,48.186 24.029,59.618 21.985,11.944 50.469,6.53 67.027,-11.906 C -4.2,22.695 -0.159,11.431 0,0 0.027,-1.933 3.027,-1.936 3,0 2.7,21.468 -10.841,39.745 -30.382,48.034 c -19.994,8.482 -43.604,4.573 -60.209,-9.169 -16.349,-13.53 -22.376,-36.242 -15.25,-56.116 7.157,-19.962 26.591,-32.699 47.126,-34.968 C -27.526,-55.666 2.554,-31.96 3,0 3.027,1.936 0.027,1.933 0,0"
         id="path4442"
         inkscape:connector-curvature="0"
         style="fill:#2b2b2a" />
    </g>
    <g
       transform="matrix(-1.25,0,0,-1.25,322.106,391.54)"
       id="g4444"
       inkscape:export-xdpi="89"
       inkscape:export-ydpi="89">
      <path
         d="m 0,0 c 0,-8.836 -7.909,-16 -17.666,-16 -9.757,0 -17.666,7.164 -17.666,16 0,8.836 7.909,16 17.666,16 C -7.909,16 0,8.836 0,0"
         id="path4446"
         inkscape:connector-curvature="0"
         style="fill:#1d1d1d" />
    </g>
    <g
       transform="matrix(-1.25,0,0,-1.25,322.106,391.54)"
       id="g4448"
       inkscape:export-xdpi="89"
       inkscape:export-ydpi="89">
      <path
         d="m 0,0 c 0,-8.836 -7.909,-16 -17.666,-16 -9.757,0 -17.666,7.164 -17.666,16 0,8.836 7.909,16 17.666,16 C -7.909,16 0,8.836 0,0 Z"
         stroke-miterlimit="10"
         id="path4450"
         inkscape:connector-curvature="0"
         style="fill:none;stroke:#2b2b2a;stroke-miterlimit:10" />
    </g>
    <g
       transform="matrix(-1.25,0,0,-1.25,344.188,385.73)"
       id="g4452"
       inkscape:export-xdpi="89"
       inkscape:export-ydpi="89">
      <path
         d="m 0,0 c 0,-2.567 -2.09,-4.648 -4.667,-4.648 -2.577,0 -4.667,2.081 -4.667,4.648 0,2.567 2.09,4.648 4.667,4.648 C -2.09,4.648 0,2.567 0,0"
         id="path4454"
         inkscape:connector-curvature="0"
         style="fill:#ffffff" />
    </g>
    <g
       transform="matrix(-1.25,0,0,-1.25,344.188,385.73)"
       id="g4456"
       inkscape:export-xdpi="89"
       inkscape:export-ydpi="89">
      <path
         d="m 0,0 c 0,-2.567 -2.09,-4.648 -4.667,-4.648 -2.577,0 -4.667,2.081 -4.667,4.648 0,2.567 2.09,4.648 4.667,4.648 C -2.09,4.648 0,2.567 0,0 Z"
         stroke-miterlimit="10"
         id="path4458"
         inkscape:connector-curvature="0"
         style="fill:none;stroke:#2b2b2a;stroke-miterlimit:10" />
    </g>
    <g
       transform="matrix(-1.25,0,0,-1.25,497.938,338.207)"
       id="g4460"
       style="fill:#0e6655;fill-opacity:1"
       inkscape:export-xdpi="89"
       inkscape:export-ydpi="89">
      <path
         d="m 0,0 -19.667,25 c 0,0 -9.833,15.906 5.5,22.203 C 1.167,53.5 11.667,41.333 12.5,40.167 13.333,39 25.667,20.333 25.667,20.333"
         id="path4462"
         inkscape:connector-curvature="0"
         style="fill:#0e6655;fill-opacity:1" />
    </g>
    <g
       transform="matrix(-1.25,0,0,-1.25,496.612,336.881)"
       id="g4464"
       inkscape:export-xdpi="89"
       inkscape:export-ydpi="89">
      <path
         d="m 0,0 c -5.035,6.401 -10.07,12.801 -15.105,19.202 -4.102,5.214 -8.241,9.813 -7.045,17.405 1.354,8.596 13.062,10.772 20.067,9.323 4.47,-0.925 9.431,-3.892 12.227,-7.581 C 14.911,32.06 18.96,25.1 23.311,18.516 24.373,16.91 26.972,18.411 25.902,20.03 21.328,26.952 17.246,35 11.663,41.15 c -3.969,4.371 -9.541,7.241 -15.348,8.096 -6.518,0.961 -15.653,-1.349 -19.413,-7.235 -4.272,-6.688 -1.815,-15.16 2.767,-20.984 L -2.121,-2.121 C -0.926,-3.641 1.182,-1.502 0,0"
         id="path4466"
         inkscape:connector-curvature="0"
         style="fill:#1d1d1d" />
    </g>
    <g
       transform="matrix(-1.25,0,0,-1.25,501.063,298.415)"
       id="g4468"
       inkscape:export-xdpi="89"
       inkscape:export-ydpi="89">
      <path
         d="m 0,0 c 0,0 -0.104,-9 3.948,-13 4.052,-4 7.719,-6.833 9.719,-5.333 2,1.5 -3.5,12.5 -5.834,13.833 C 5.5,-3.167 4,0.5 0,0"
         id="path4470"
         inkscape:connector-curvature="0"
         style="fill:#1e1e1f" />
    </g>
    <g
       transform="matrix(-1.25,0,0,-1.25,502.938,298.415)"
       id="g4472"
       inkscape:export-xdpi="89"
       inkscape:export-ydpi="89">
      <path
         d="m 0,0 c -0.019,-4.495 0.861,-9.5 3.602,-13.153 1.339,-1.785 10.627,-10.975 13.058,-5.723 1.721,3.716 -1.787,9.276 -3.666,12.328 -1.186,1.927 -2.651,2.934 -4.246,4.444 -2.217,2.1 -4.019,3.747 -7.248,3.604 -1.927,-0.085 -1.935,-3.085 0,-3 2.773,0.123 6.465,-3.225 8.16,-5.462 1.95,-2.575 3.423,-5.76 4.253,-8.867 0.843,-3.154 -3.75,0.578 -4.458,1.158 -2.214,1.816 -4.081,3.699 -5.116,6.396 C 3.351,-5.695 2.988,-2.754 3,0 3.008,1.935 0.008,1.934 0,0"
         id="path4474"
         inkscape:connector-curvature="0"
         style="fill:#2b2b2a" />
    </g>
    <g
       transform="matrix(-1.25,0,0,-1.25,222.217,397.56)"
       id="g4476"
       inkscape:export-xdpi="89"
       inkscape:export-ydpi="89">
      <path
         d="m 0,0 c 0,-7.281 -8.208,-13.184 -18.333,-13.184 -10.125,0 -18.334,5.903 -18.334,13.184 0,7.281 8.209,13.184 18.334,13.184 C -8.208,13.184 0,7.281 0,0"
         id="path4478"
         inkscape:connector-curvature="0"
         style="fill:#9d9080" />
    </g>
    <g
       transform="matrix(-1.25,0,0,-1.25,224.092,397.56)"
       id="g4480"
       inkscape:export-xdpi="89"
       inkscape:export-ydpi="89">
      <path
         d="m 0,0 c -0.933,-15.759 -32.734,-15.759 -33.667,0 -0.49,8.28 10.556,11.492 16.834,11.684 C -9.797,11.899 -0.474,8.007 0,0 0.113,-1.922 3.114,-1.934 3,0 1.837,19.66 -35.504,19.66 -36.667,0 -37.261,-10.034 -24.741,-14.441 -16.833,-14.684 -7.987,-14.954 2.427,-9.692 3,0 3.114,1.934 0.113,1.922 0,0"
         id="path4482"
         inkscape:connector-curvature="0"
         style="fill:#1d1d1d" />
    </g>
    <g
       transform="matrix(-1.25,0,0,-1.25,261.966,436.419)"
       id="g4484"
       inkscape:export-xdpi="89"
       inkscape:export-ydpi="89">
      <path
         d="m 0,0 0,-24.75 c 0,0 -1.379,-3.441 8.27,-3.934 9.649,-0.492 10.751,0 10.751,0 0,0 4.961,-1.638 6.891,6.393 1.931,8.031 6.894,23.111 6.894,23.111 L 0,0 Z"
         id="path4486"
         inkscape:connector-curvature="0"
         style="fill:#ffffff" />
    </g>
    <g
       transform="matrix(-1.25,0,0,-1.25,263.842,436.419)"
       id="g4488"
       inkscape:export-xdpi="89"
       inkscape:export-ydpi="89">
      <path
         d="m 0,0 0,-21.921 c 0,-2.042 -0.415,-2.675 0.126,-4.343 1.145,-3.528 6.747,-3.704 9.644,-3.92 3.369,-0.251 7.774,-0.89 11.133,0.048 -1.569,-0.438 0.926,-0.181 1.489,-0.111 1.657,0.21 2.929,1.123 4.042,2.319 3.466,3.724 4.035,11.35 5.454,16.08 1.232,4.107 2.526,8.196 3.864,12.269 C 36.054,1.339 35.249,2.344 34.306,2.32 23.37,2.047 12.436,1.773 1.5,1.5 c -1.931,-0.048 -1.936,-3.048 0,-3 10.936,0.273 21.87,0.547 32.806,0.82 -0.483,0.633 -0.964,1.266 -1.447,1.899 -2.505,-7.631 -4.967,-15.311 -6.893,-23.111 -0.574,-2.327 -1.715,-5.378 -4.537,-5.427 -0.456,-0.008 -0.858,0.244 -1.324,0.076 -2.368,-0.858 -6.104,-0.12 -8.517,-0.027 C 9.414,-27.185 3,-27.322 3,-24.7 L 3,-18.042 3,0 C 3,1.935 0,1.935 0,0"
         id="path4490"
         inkscape:connector-curvature="0"
         style="fill:#1d1d1d" />
    </g>
    <g
       transform="matrix(-1.25,0,0,-1.25,246.562,409.654)"
       id="g4492"
       inkscape:export-xdpi="89"
       inkscape:export-ydpi="89">
      <path
         d="m 0,0 c 0,0 -8.404,3.956 -17.07,1.79 -8.668,-2.167 -18.834,-11.166 -18,-19.833 0.832,-8.668 9.666,-14.501 15,-14.668 2.012,-0.062 6.723,-1.832 17.736,-1.832 9.853,0 11.501,0.932 17.334,1.166 7.469,0.301 12.762,6 12.596,16.5 -0.166,10.5 -7.334,15.834 -15,15.334 C 4.93,-2.043 0,0 0,0"
         id="path4494"
         inkscape:connector-curvature="0"
         style="fill:#f4d6b9" />
    </g>
    <g
       transform="matrix(-1.25,0,0,-1.25,245.616,408.035)"
       id="g4496"
       inkscape:export-xdpi="89"
       inkscape:export-ydpi="89">
      <path
         d="m 0,0 c -13.778,6.253 -34.188,-0.124 -37.224,-16.461 -1.328,-7.154 4.143,-13.726 9.902,-17.077 4.753,-2.765 12.1,-3.084 17.458,-3.552 8.465,-0.739 16.797,0.351 25.211,1.003 7.191,0.558 11.424,6.52 12.656,13.117 1.359,7.284 -0.732,14.885 -6.863,19.269 -6.209,4.439 -14.638,1.153 -21.498,3.852 -1.802,0.709 -2.577,-2.193 -0.797,-2.893 4.469,-1.759 9.43,-1.695 14.139,-1.566 8.615,0.236 12.414,-7.996 12.339,-15.403 -0.078,-7.66 -4.494,-13.132 -12.194,-13.517 -6.072,-0.304 -11.983,-1.15 -18.099,-1.093 -10.49,0.099 -24.871,1.163 -28.895,12.741 -2.836,8.16 5.477,15.417 11.765,18.847 6.168,3.365 14.273,3.008 20.586,0.142 C 0.233,-3.384 1.76,-0.799 0,0"
         id="path4498"
         inkscape:connector-curvature="0"
         style="fill:#1d1d1d" />
    </g>
    <g
       transform="matrix(-1.25,0,0,-1.25,450.313,560.646)"
       id="g4508"
       style="fill:#0e6655;fill-opacity:1"
       inkscape:export-xdpi="89"
       inkscape:export-ydpi="89">
      <path
         d="m 0,0 c 5.894,-8.667 20.225,-9.583 20.225,-9.583 0,0 -2.334,3.582 0,7.249 0,0 2.108,-4.416 6.442,-6.416 L 34.333,0"
         id="path4510"
         inkscape:connector-curvature="0"
         style="fill:#0e6655;fill-opacity:1" />
    </g>
    <g
       transform="matrix(-0.16401762,0,0,0.16401762,978.01351,353.89079)"
       id="g4757" />
    <g
       transform="matrix(-0.16401762,0,0,0.16401762,978.01351,353.89079)"
       id="g4759" />
    <g
       transform="matrix(-0.16401762,0,0,0.16401762,978.01351,353.89079)"
       id="g4761" />
    <g
       transform="matrix(-0.16401762,0,0,0.16401762,978.01351,353.89079)"
       id="g4763" />
    <g
       transform="matrix(-0.16401762,0,0,0.16401762,978.01351,353.89079)"
       id="g4765" />
    <g
       transform="matrix(-0.16401762,0,0,0.16401762,978.01351,353.89079)"
       id="g4767" />
    <g
       transform="matrix(-0.16401762,0,0,0.16401762,978.01351,353.89079)"
       id="g4769" />
    <g
       transform="matrix(-0.16401762,0,0,0.16401762,978.01351,353.89079)"
       id="g4771" />
    <g
       transform="matrix(-0.16401762,0,0,0.16401762,978.01351,353.89079)"
       id="g4773" />
    <g
       transform="matrix(-0.16401762,0,0,0.16401762,978.01351,353.89079)"
       id="g4775" />
    <g
       transform="matrix(-0.16401762,0,0,0.16401762,978.01351,353.89079)"
       id="g4777" />
    <g
       transform="matrix(-0.16401762,0,0,0.16401762,978.01351,353.89079)"
       id="g4779" />
    <g
       transform="matrix(-0.16401762,0,0,0.16401762,978.01351,353.89079)"
       id="g4781" />
    <g
       transform="matrix(-0.16401762,0,0,0.16401762,978.01351,353.89079)"
       id="g4783" />
    <g
       transform="matrix(-0.16401762,0,0,0.16401762,978.01351,353.89079)"
       id="g4785" />
    <g
       id="g5533"
       transform="matrix(1.0697453,-0.61761777,0.6176177,1.0697453,-754.34257,433.97721)">
      <path
         id="path4687"
         d="m 712.64765,603.3643 c -0.91719,-0.70462 -2.06006,-1.58375 -4.21328,-1.58375 -2.15454,0 -3.2961,0.87782 -4.2146,1.58375 -0.78597,0.60358 -1.35413,1.04053 -2.6151,1.04053 -1.26228,0 -1.83175,-0.43695 -2.61641,-1.04053 -0.70987,-0.54585 -1.56145,-1.19012 -2.90246,-1.45517 l 0,-14.23804 10.2124,2.26869 c 0.18764,0.0407 0.38183,0.0407 0.56947,0 l 10.21239,-2.27 0,16.24431 c -0.48286,0.29392 -1.00248,0.48942 -1.81994,0.48942 -1.25965,10e-4 -1.8265,-0.43431 -2.61247,-1.03921 z"
         style="fill:#cc6c45"
         inkscape:connector-curvature="0"
         inkscape:export-xdpi="89"
         inkscape:export-ydpi="89" />
      <circle
         transform="scale(-1,1)"
         id="circle4689"
         r="2.6242821"
         cy="616.21277"
         cx="-753.82001"
         style="fill:#e2b624"
         inkscape:export-xdpi="89"
         inkscape:export-ydpi="89" />
      <path
         id="path4691"
         d="m 756.18974,604.40483 c -1.25835,0 -1.82519,-0.43563 -2.60854,-1.04053 -0.91719,-0.70462 -2.05875,-1.58375 -4.20935,-1.58375 -2.15191,0 -3.29347,0.87913 -4.21066,1.58375 -0.78597,0.6049 -1.35151,1.04053 -2.61116,1.04053 -1.25965,0 -1.8265,-0.43563 -2.61116,-1.04053 -0.91719,-0.70462 -2.05875,-1.58375 -4.21066,-1.58375 -2.15191,0 -3.29347,0.87913 -4.21066,1.58375 -0.78597,0.6049 -1.35151,1.04053 -2.61116,1.04053 -1.25966,0 -1.82781,-0.43695 -2.61247,-1.04053 -0.91719,-0.70593 -2.05875,-1.58375 -4.21066,-1.58375 -0.97886,0 -1.74253,0.18632 -2.3776,0.45137 l 0,-14.37713 6.14607,2.04694 c 0.29523,0.10104 0.61277,0.0892 0.90275,-0.0249 l 6.11458,-2.44583 7.41622,2.47207 c 0.29391,0.10104 0.61408,0.0892 0.90275,-0.0249 l 6.11457,-2.44582 7.41622,2.47207 c 0.26899,0.0892 0.5616,0.0892 0.83059,0 l 6.14344,-2.04957 0,14.05303 c -1.33838,0.26637 -2.18733,0.91063 -2.89589,1.45648 -0.78335,0.6049 -1.34888,1.04053 -2.60722,1.04053 z"
         style="fill:#cc6c45"
         inkscape:connector-curvature="0"
         inkscape:export-xdpi="89"
         inkscape:export-ydpi="89" />
      <g
         id="g4693"
         transform="matrix(-0.16401762,0,0,0.16401762,770.87833,584.72042)"
         inkscape:export-xdpi="89"
         inkscape:export-ydpi="89">
        <circle
           id="circle4695"
           r="24"
           cy="440.00601"
           cx="104.003"
           style="fill:#e2b624" />
        <path
           id="path4697"
           d="m 312.003,125.294 c -4.096,-3.096 -7.616,-5.288 -14.496,-5.288 -7.68,0 -11.136,2.656 -15.92,6.344 -5.592,4.296 -12.552,9.656 -25.68,9.656 -13.12,0 -20.08,-5.36 -25.672,-9.656 -4.792,-3.688 -8.24,-6.344 -15.92,-6.344 -7.68,0 -11.136,2.656 -15.92,6.344 -5.592,4.296 -12.552,9.656 -25.672,9.656 -13.12,0 -20.08,-5.36 -25.672,-9.656 -4.792,-3.688 -8.24,-6.344 -15.92,-6.344 -7.664,0 -11.12,2.656 -15.896,6.336 -5.592,4.304 -12.552,9.664 -25.672,9.664 -13.12,0 -20.072,-5.36 -25.664,-9.664 -2.696,-2.08 -5.04,-3.76 -7.888,-4.888 l 0,254.552 c 0,0.896 -0.152,1.792 -0.448,2.632 l -39.56,113.432 0,3.936 256,0 0,-5.288 c 0,-0.896 0.152,-1.792 0.448,-2.632 l 39.552,-113.424 0,-249.368 z m -96,194.72 0,16 -16,0 0,-16 16,0 z m -45.656,-146.344 11.312,-11.312 10.344,10.336 10.344,-10.344 11.312,11.312 -10.344,10.344 10.344,10.344 -11.312,11.312 -10.344,-10.336 -10.344,10.344 -11.312,-11.312 10.344,-10.344 -10.344,-10.344 z m -18.344,71.024 10.344,-10.344 11.312,11.312 -10.344,10.344 10.344,10.344 -11.312,11.312 -10.344,-10.336 -10.344,10.344 -11.312,-11.312 10.344,-10.344 -10.344,-10.344 11.312,-11.312 10.344,10.336 z m -48,-84.68 c 17.648,0 32,14.352 32,32 0,17.648 -14.352,32 -32,32 -17.648,0 -32,-14.352 -32,-32 0,-17.648 14.352,-32 32,-32 z M 117.659,346.358 106.347,357.67 96.003,347.326 85.659,357.67 74.347,346.358 84.691,336.014 74.347,325.67 l 11.312,-11.312 10.344,10.336 10.344,-10.344 11.312,11.312 -10.344,10.344 10.344,10.352 z m -37.656,-66.344 0,-16 16,0 0,16 -16,0 z m 24,200 c -22.056,0 -40,-17.944 -40,-40 0,-22.056 17.944,-40 40,-40 22.056,0 40,17.944 40,40 0,22.048 -17.944,40 -40,40 z m 48,-176 16,0 0,16 -16,0 0,-16 z m 32,176 -16,0 0,-16 16,0 0,16 z m 56,-32.008 -16,0 0,-16 -16,0 c -4.424,0 -8,-3.576 -8,-7.992 l 0,-16.008 -16,0 c -4.424,0 -8,-3.576 -8,-7.992 l 0,-24.008 16,0 0,16 16,0 c 4.424,0 8,3.584 8,8.008 l 0,15.992 16,0 c 4.424,0 8,3.584 8,8.008 l 0,23.992 z m 32,-79.992 c -13.232,0 -24,-10.768 -24,-24 0,-13.232 10.768,-24 24,-24 13.232,0 24,10.768 24,24 0,13.232 -10.768,24 -24,24 z m -16,-88 0,-16 16,0 0,16 -16,0 z m 40,-88.008 -16,0 0,16.008 c 0,4.416 -3.576,7.992 -8,7.992 l -16,0 0,16.008 c 0,4.416 -3.576,7.992 -8,7.992 l -24,0 0,-16 16,0 0,-15.992 c 0,-4.424 3.576,-8.008 8,-8.008 l 16,0 0,-15.992 c 0,-4.424 3.576,-8.008 8,-8.008 l 24,0 0,16 z"
           style="fill:#e2b624"
           inkscape:connector-curvature="0" />
        <circle
           id="circle4699"
           r="8"
           cy="344.00601"
           cx="272.00299"
           style="fill:#e2b624" />
        <circle
           id="circle4701"
           r="16"
           cy="184.006"
           cx="376.00299"
           style="fill:#e2b624" />
        <circle
           id="circle4703"
           r="8"
           cy="384.00601"
           cx="400.00299"
           style="fill:#e2b624" />
        <path
           id="path4705"
           d="m 456.003,376.014 0,-254.56 c -2.872,1.136 -5.232,2.816 -7.944,4.904 -5.6,4.304 -12.568,9.656 -25.704,9.656 -13.136,0 -20.096,-5.352 -25.696,-9.656 -4.792,-3.68 -8.256,-6.344 -15.944,-6.344 -7.688,0 -11.152,2.664 -15.936,6.344 -5.592,4.304 -12.552,9.656 -25.68,9.656 -4.328,0 -7.936,-0.616 -11.096,-1.552 l 0,241.552 c 0,0.896 -0.152,1.792 -0.448,2.632 l -39.552,113.424 0,3.936 72,0 64,0 72,0 0,-3.936 -39.552,-113.424 c -0.296,-0.848 -0.448,-1.736 -0.448,-2.632 z m -32,-224 16,0 0,16 -16,0 0,-16 z m -48,0 c 17.648,0 32,14.352 32,32 0,17.648 -14.352,32 -32,32 -17.648,0 -32,-14.352 -32,-32 0,-17.648 14.352,-32 32,-32 z m 24,104 0,16 -16,0 0,-16 16,0 z m -40,48 0,16 -16,0 0,-16 16,0 z m -24,-72 16,0 0,16 -16,0 0,-16 z m 45.656,234.344 -11.312,11.312 -10.344,-10.344 -10.344,10.344 -11.312,-11.312 10.344,-10.344 -10.344,-10.344 11.312,-11.312 10.344,10.336 10.344,-10.344 11.312,11.312 -10.344,10.344 10.344,10.352 z m 18.344,-58.344 c -13.232,0 -24,-10.768 -24,-24 0,-13.232 10.768,-24 24,-24 13.232,0 24,10.768 24,24 0,13.232 -10.768,24 -24,24 z m 24,-80 -16,0 0,-16 16,0 0,16 z m 0,-96.008 16,0 0,56 -16,0 0,-56 z m 24,240.008 -16,0 0,-16 16,0 0,16 z"
           style="fill:#e2b624"
           inkscape:connector-curvature="0" />
      </g>
      <g
         id="g4707"
         transform="matrix(-0.16401762,0,0,0.16401762,770.87833,584.72042)"
         inkscape:export-xdpi="89"
         inkscape:export-ydpi="89">
        <path
           id="path4709"
           d="m 472.003,374.662 0,-366.648 c 0,-2.432 -1.104,-4.72 -2.992,-6.24 -1.896,-1.512 -4.392,-2.08 -6.744,-1.568 l -70.264,15.608 -70.264,-15.616 -0.008,0.04 c -1.4,-0.312 -2.864,-0.296 -4.256,0.184 L 272.259,15.494 234.979,0.582 c -1.76,-0.712 -3.712,-0.776 -5.504,-0.16 L 184.259,15.494 146.979,0.582 c -1.768,-0.712 -3.704,-0.776 -5.504,-0.16 L 96.003,15.582 50.531,0.422 c -2.44,-0.832 -5.12,-0.4 -7.208,1.096 -2.088,1.512 -3.32,3.92 -3.32,6.496 l 0,366.648 -39.552,113.424 c -0.296,0.848 -0.448,1.736 -0.448,2.632 l 0,13.288 c 0,4.424 3.576,8 8,8 l 352,0 64,0 80,0 c 4.424,0 8,-3.576 8,-7.992 l 0,-13.288 c 0,-0.896 -0.152,-1.792 -0.448,-2.632 L 472.003,374.662 Z m -144,-356.68 62.264,13.84 c 1.144,0.248 2.328,0.248 3.472,0 l 62.264,-13.832 0,86.8 c -8.176,1.624 -13.368,5.552 -17.696,8.872 -4.792,3.68 -8.256,6.344 -15.952,6.344 -7.688,0 -11.152,-2.664 -15.944,-6.344 -5.6,-4.304 -12.56,-9.656 -25.696,-9.656 -13.128,0 -20.096,5.36 -25.688,9.656 -4.792,3.688 -8.248,6.344 -15.928,6.344 -4.976,0 -8.152,-1.192 -11.096,-2.984 l 0,-99.04 0,0 z m -272,1.128 37.472,12.48 c 1.64,0.544 3.424,0.544 5.064,0 l 45.216,-15.072 37.28,14.912 c 1.76,0.704 3.712,0.776 5.504,0.152 l 45.216,-15.072 37.28,14.912 c 1.768,0.704 3.704,0.776 5.504,0.152 l 37.464,-12.464 0,87.648 c -3.872,-1.616 -8.52,-2.752 -14.496,-2.752 -13.12,0 -20.08,5.352 -25.672,9.656 -4.792,3.68 -8.248,6.344 -15.928,6.344 -7.68,0 -11.136,-2.656 -15.92,-6.344 -5.592,-4.296 -12.552,-9.656 -25.672,-9.656 -13.12,0 -20.08,5.36 -25.672,9.656 -4.792,3.688 -8.24,6.344 -15.92,6.344 -7.68,0 -11.136,-2.656 -15.92,-6.344 -5.592,-4.296 -12.552,-9.656 -25.672,-9.656 -13.112,0 -20.072,5.36 -25.664,9.656 -4.784,3.688 -8.232,6.344 -15.904,6.344 -7.672,0 -11.128,-2.656 -15.896,-6.336 -4.328,-3.32 -9.504,-7.248 -17.664,-8.88 l 0,-85.68 z m 216,471.608 0,5.288 -256,0 0,-3.936 39.552,-113.424 c 0.296,-0.848 0.448,-1.736 0.448,-2.632 l 0,-254.552 c 2.848,1.128 5.192,2.808 7.888,4.888 5.592,4.304 12.544,9.664 25.664,9.664 13.12,0 20.08,-5.36 25.672,-9.664 4.784,-3.68 8.232,-6.336 15.896,-6.336 7.68,0 11.136,2.656 15.92,6.344 5.592,4.296 12.552,9.656 25.672,9.656 13.12,0 20.08,-5.36 25.672,-9.656 4.792,-3.688 8.24,-6.344 15.92,-6.344 7.68,0 11.136,2.656 15.92,6.344 5.592,4.296 12.552,9.656 25.672,9.656 13.128,0 20.088,-5.36 25.68,-9.656 4.792,-3.688 8.24,-6.344 15.92,-6.344 6.88,0 10.4,2.192 14.496,5.288 l 0,249.36 -39.544,113.424 c -0.296,0.848 -0.448,1.736 -0.448,2.632 z m 224,5.288 -72,0 -64,0 -72,0 0,-3.936 39.552,-113.432 c 0.296,-0.84 0.448,-1.728 0.448,-2.624 l 0,-241.56 c 3.16,0.936 6.768,1.552 11.096,1.552 13.128,0 20.088,-5.352 25.68,-9.656 4.792,-3.68 8.248,-6.344 15.936,-6.344 7.688,0 11.16,2.664 15.944,6.344 5.6,4.304 12.56,9.656 25.696,9.656 13.136,0 20.104,-5.352 25.704,-9.656 2.712,-2.08 5.072,-3.768 7.944,-4.904 l 0,254.56 c 0,0.896 0.152,1.792 0.448,2.632 l 39.552,113.432 0,3.936 z"
           style="fill:#0b1716"
           inkscape:connector-curvature="0" />
        <path
           id="path4711"
           d="m 104.003,224.014 c 17.648,0 32,-14.352 32,-32 0,-17.648 -14.352,-32 -32,-32 -17.648,0 -32,14.352 -32,32 0,17.648 14.352,32 32,32 z m 0,-48 c 8.816,0 16,7.176 16,16 0,8.816 -7.184,16 -16,16 -8.816,0 -16,-7.184 -16,-16 0,-8.824 7.184,-16 16,-16 z"
           style="fill:#0b1716"
           inkscape:connector-curvature="0" />
        <path
           id="path4713"
           d="m 272.003,320.014 c -13.232,0 -24,10.768 -24,24 0,13.232 10.768,24 24,24 13.232,0 24,-10.768 24,-24 0,-13.232 -10.768,-24 -24,-24 z m 0,32 c -4.416,0 -8,-3.584 -8,-8 0,-4.416 3.584,-8 8,-8 4.416,0 8,3.584 8,8 0,4.408 -3.584,8 -8,8 z"
           style="fill:#0b1716"
           inkscape:connector-curvature="0" />
        <path
           id="path4715"
           d="m 376.003,216.014 c 17.648,0 32,-14.352 32,-32 0,-17.648 -14.352,-32 -32,-32 -17.648,0 -32,14.352 -32,32 0,17.648 14.352,32 32,32 z m 0,-48 c 8.816,0 16,7.176 16,16 0,8.816 -7.184,16 -16,16 -8.824,0 -16,-7.184 -16,-16 0,-8.824 7.176,-16 16,-16 z"
           style="fill:#0b1716"
           inkscape:connector-curvature="0" />
        <path
           id="path4717"
           d="m 400.003,360.014 c -13.232,0 -24,10.768 -24,24 0,13.232 10.768,24 24,24 13.232,0 24,-10.768 24,-24 0,-13.232 -10.768,-24 -24,-24 z m 0,32 c -4.416,0 -8,-3.584 -8,-8 0,-4.416 3.584,-8 8,-8 4.416,0 8,3.584 8,8 0,4.408 -3.584,8 -8,8 z"
           style="fill:#0b1716"
           inkscape:connector-curvature="0" />
        <path
           id="path4719"
           d="m 104.003,400.014 c -22.056,0 -40,17.944 -40,40 0,22.056 17.944,40 40,40 22.056,0 40,-17.944 40,-40 0,-22.056 -17.944,-40 -40,-40 z m 0,64 c -13.232,0 -24,-10.768 -24,-24 0,-13.232 10.768,-24 24,-24 13.232,0 24,10.768 24,24 0,13.232 -10.768,24 -24,24 z"
           style="fill:#0b1716"
           inkscape:connector-curvature="0" />
        <polygon
           id="polygon4721"
           points="96.003,324.694 85.659,314.358 74.347,325.67 84.691,336.014 74.347,346.358 85.659,357.67 96.003,347.326 106.347,357.67 117.659,346.358 107.315,336.014 117.659,325.67 106.347,314.358 "
           style="fill:#0b1716" />
        <polygon
           id="polygon4723"
           points="130.347,266.358 141.659,277.67 152.003,267.326 162.347,277.67 173.659,266.358 163.315,256.014 173.659,245.67 162.347,234.358 152.003,244.694 141.659,234.358 130.347,245.67 140.691,256.014 "
           style="fill:#0b1716" />
        <polygon
           id="polygon4725"
           points="192.003,195.326 202.347,205.67 213.659,194.358 203.315,184.014 213.659,173.67 202.347,162.358 192.003,172.694 181.659,162.358 170.347,173.67 180.691,184.014 170.347,194.358 181.659,205.67 "
           style="fill:#0b1716" />
        <polygon
           id="polygon4727"
           points="360.003,444.694 349.659,434.358 338.347,445.67 348.691,456.014 338.347,466.358 349.659,477.67 360.003,467.326 370.347,477.67 381.659,466.358 371.315,456.014 381.659,445.67 370.347,434.358 "
           style="fill:#0b1716" />
        <path
           id="path4729"
           d="m 232.003,416.006 -16,0 0,-15.992 c 0,-4.424 -3.576,-8.008 -8,-8.008 l -16,0 0,-16 -16,0 0,24.008 c 0,4.416 3.576,7.992 8,7.992 l 16,0 0,16.008 c 0,4.416 3.576,7.992 8,7.992 l 16,0 0,16 16,0 0,-23.992 c 0,-4.424 -3.576,-8.008 -8,-8.008 z"
           style="fill:#0b1716"
           inkscape:connector-curvature="0" />
        <path
           id="path4731"
           d="m 264.003,184.014 0,15.992 -16,0 c -4.424,0 -8,3.584 -8,8.008 l 0,15.992 -16,0 0,16 24,0 c 4.424,0 8,-3.576 8,-7.992 l 0,-16.008 16,0 c 4.424,0 8,-3.576 8,-7.992 l 0,-16.008 16,0 0,-16 -24,0 c -4.424,0 -8,3.584 -8,8.008 z"
           style="fill:#0b1716"
           inkscape:connector-curvature="0" />
        <rect
           id="rect4733"
           height="16"
           width="16"
           style="fill:#0b1716"
           y="304.00601"
           x="152.00301" />
        <rect
           id="rect4735"
           height="16"
           width="16"
           style="fill:#0b1716"
           y="320.00601"
           x="200.00301" />
        <rect
           id="rect4737"
           height="16"
           width="16"
           style="fill:#0b1716"
           y="264.00601"
           x="80.002998" />
        <rect
           id="rect4739"
           height="16"
           width="16"
           style="fill:#0b1716"
           y="264.00601"
           x="256.00299" />
        <rect
           id="rect4741"
           height="16"
           width="16"
           style="fill:#0b1716"
           y="464.00601"
           x="168.00301" />
        <rect
           id="rect4743"
           height="16"
           width="16"
           style="fill:#0b1716"
           y="304.00601"
           x="344.00299" />
        <rect
           id="rect4745"
           height="16"
           width="16"
           style="fill:#0b1716"
           y="256.00601"
           x="384.00299" />
        <rect
           id="rect4747"
           height="16"
           width="16"
           style="fill:#0b1716"
           y="152.006"
           x="424.00299" />
        <rect
           id="rect4749"
           height="16"
           width="16"
           style="fill:#0b1716"
           y="232.006"
           x="336.00299" />
        <rect
           id="rect4751"
           height="56"
           width="16"
           style="fill:#0b1716"
           y="232.006"
           x="424.00299" />
        <rect
           id="rect4753"
           height="16"
           width="16"
           style="fill:#0b1716"
           y="312.00601"
           x="408.00299" />
        <rect
           id="rect4755"
           height="16"
           width="16"
           style="fill:#0b1716"
           y="456.00601"
           x="432.00299" />
      </g>
    </g>
    <g
       id="g5570"
       inkscape:export-xdpi="89"
       inkscape:export-ydpi="89">
      <g
         id="g4500"
         transform="matrix(-1.25,0,0,-1.25,441.036,566.332)">
        <path
           style="fill:#f4d6b9"
           inkscape:connector-curvature="0"
           id="path4502"
           d="m 0,0 c 0,0 -1.948,-10.389 0,-20.129 1.948,-9.739 7.792,-24.023 19.479,-21.427 11.688,2.598 5.194,19.804 5.194,19.804 0,0 -3.571,13.96 -1.623,23.375" />
      </g>
      <g
         id="g4504"
         transform="matrix(-1.25,0,0,-1.25,442.844,565.834)">
        <path
           style="fill:#1d1d1d"
           inkscape:connector-curvature="0"
           id="path4506"
           d="m 0,0 c -1.801,-10.016 -1.204,-20.82 2.82,-30.246 3.322,-7.779 11.25,-17.347 20.847,-12.353 6.744,3.51 6.314,11.721 4.731,18.119 -2.049,8.277 -3.977,16.722 -2.455,25.306 0.335,1.891 -2.555,2.7 -2.893,0.797 -1.376,-7.759 -0.29,-15.816 1.447,-23.44 1.011,-4.439 2.531,-8.507 1.592,-13.173 -0.989,-4.914 -6.067,-6.433 -10.478,-5.416 -4.861,1.121 -7.797,6.413 -9.719,10.548 C 1.77,-20.995 1.181,-10.319 2.893,-0.797 3.233,1.094 0.342,1.902 0,0" />
      </g>
      <g
         id="g4512"
         transform="matrix(-1.25,0,0,-1.25,451.932,561.592)">
        <path
           style="fill:#1d1d1d"
           inkscape:connector-curvature="0"
           id="path4514"
           d="m 0,0 c 4.929,-6.648 13.456,-9.75 21.52,-10.326 1.158,-0.083 1.839,1.329 1.295,2.257 -1.046,1.786 -1.012,3.591 0,5.735 l -2.59,0 c 1.523,-3.02 4.034,-5.364 6.98,-6.954 0.566,-0.306 1.366,-0.28 1.817,0.234 2.556,2.917 5.112,5.833 7.667,8.75 1.27,1.449 -0.843,3.579 -2.121,2.121 -2.555,-2.917 -5.111,-5.833 -7.667,-8.75 0.606,0.079 1.212,0.157 1.818,0.235 -2.531,1.366 -4.6,3.294 -5.904,5.878 -0.484,0.96 -2.118,1 -2.59,0 -1.383,-2.93 -1.704,-5.853 0,-8.763 0.432,0.752 0.863,1.505 1.295,2.257 C 14.626,-6.833 6.819,-4.189 2.591,1.514 1.452,3.049 -1.154,1.556 0,0" />
      </g>
    </g>
  </g>
</svg>
