<?xml version="1.0" encoding="UTF-8" standalone="no"?>
<!-- Created with Inkscape (http://www.inkscape.org/) -->

<svg
   xmlns:dc="http://purl.org/dc/elements/1.1/"
   xmlns:cc="http://creativecommons.org/ns#"
   xmlns:rdf="http://www.w3.org/1999/02/22-rdf-syntax-ns#"
   xmlns:svg="http://www.w3.org/2000/svg"
   xmlns="http://www.w3.org/2000/svg"
   xmlns:sodipodi="http://sodipodi.sourceforge.net/DTD/sodipodi-0.dtd"
   xmlns:inkscape="http://www.inkscape.org/namespaces/inkscape"
   version="1.1"
   id="svg340"
   xml:space="preserve"
   width="1632"
   height="1056"
   viewBox="0 0 1632 1056"
   sodipodi:docname="yarf.svg"
   inkscape:version="0.92.3 (2405546, 2018-03-11)"><metadata
     id="metadata346"><rdf:RDF><cc:Work
         rdf:about=""><dc:format>image/svg+xml</dc:format><dc:type
           rdf:resource="http://purl.org/dc/dcmitype/StillImage" /><dc:title /></cc:Work></rdf:RDF></metadata><defs
     id="defs344"><inkscape:path-effect
       effect="bspline"
       id="path-effect1840"
       is_visible="true"
       weight="33.333333"
       steps="2"
       helper_size="0"
       apply_no_weight="true"
       apply_with_weight="true"
       only_selected="false" /><clipPath
       clipPathUnits="userSpaceOnUse"
       id="clipPath374"><path
         d="M 0,792 H 1224 V 0 H 0 Z"
         id="path372"
         inkscape:connector-curvature="0" /></clipPath><clipPath
       clipPathUnits="userSpaceOnUse"
       id="clipPath392"><path
         d="M 0,792 H 1224 V 0 H 0 Z"
         id="path390"
         inkscape:connector-curvature="0" /></clipPath><clipPath
       clipPathUnits="userSpaceOnUse"
       id="clipPath412"><path
         d="M 0,792 H 1224 V 0 H 0 Z"
         id="path410"
         inkscape:connector-curvature="0" /></clipPath><clipPath
       clipPathUnits="userSpaceOnUse"
       id="clipPath432"><path
         d="M 0,792 H 1224 V 0 H 0 Z"
         id="path430"
         inkscape:connector-curvature="0" /></clipPath><clipPath
       clipPathUnits="userSpaceOnUse"
       id="clipPath452"><path
         d="M 0,792 H 1224 V 0 H 0 Z"
         id="path450"
         inkscape:connector-curvature="0" /></clipPath><clipPath
       clipPathUnits="userSpaceOnUse"
       id="clipPath472"><path
         d="M 0,792 H 1224 V 0 H 0 Z"
         id="path470"
         inkscape:connector-curvature="0" /></clipPath><clipPath
       clipPathUnits="userSpaceOnUse"
       id="clipPath490"><path
         d="M 0,792 H 1224 V 0 H 0 Z"
         id="path488"
         inkscape:connector-curvature="0" /></clipPath><clipPath
       clipPathUnits="userSpaceOnUse"
       id="clipPath508"><path
         d="M 0,792 H 1224 V 0 H 0 Z"
         id="path506"
         inkscape:connector-curvature="0" /></clipPath><clipPath
       clipPathUnits="userSpaceOnUse"
       id="clipPath526"><path
         d="M 0,792 H 1224 V 0 H 0 Z"
         id="path524"
         inkscape:connector-curvature="0" /></clipPath><clipPath
       clipPathUnits="userSpaceOnUse"
       id="clipPath542"><path
         d="M 0,792 H 1224 V 0 H 0 Z"
         id="path540"
         inkscape:connector-curvature="0" /></clipPath></defs><sodipodi:namedview
     pagecolor="#ffffff"
     bordercolor="#666666"
     borderopacity="1"
     objecttolerance="10"
     gridtolerance="10"
     guidetolerance="10"
     inkscape:pageopacity="0"
     inkscape:pageshadow="2"
     inkscape:window-width="1916"
     inkscape:window-height="1117"
     id="namedview342"
     showgrid="false"
     inkscape:zoom="0.92234848"
     inkscape:cx="783.0601"
     inkscape:cy="510.33679"
     inkscape:window-x="1920"
     inkscape:window-y="81"
     inkscape:window-maximized="0"
     inkscape:current-layer="g538" /><g
     id="g348"
     inkscape:groupmode="layer"
     inkscape:label="gopher-stand"
     transform="matrix(1.3333333,0,0,-1.3333333,0,1056)"><path
   d="m -59.794665,442.17296 h -31.333 v 26.574 h 31.333 z"
   style="fill:#c0b6d6;fill-opacity:1;fill-rule:nonzero;stroke:none"
   id="path366"
   inkscape:connector-curvature="0" /><g
   id="g368"
   transform="translate(-135.79466,28.45996)"><g
     id="g370"
     clip-path="url(#clipPath374)"><g
       id="g376"
       transform="translate(76,415.2129)"><path
         d="m 0,0 h -31.333 l 1.5,-1.5 v 26.574 l -1.5,-1.5 H 0 l -1.5,1.5 V -1.5 c 0,-1.935 3,-1.935 3,0 v 26.574 c 0,0.818 -0.682,1.5 -1.5,1.5 h -31.333 c -0.818,0 -1.5,-0.682 -1.5,-1.5 V -1.5 c 0,-0.817 0.682,-1.5 1.5,-1.5 H 0 c 1.935,0 1.935,3 0,3"
         style="fill:#000000;fill-opacity:1;fill-rule:nonzero;stroke:none"
         id="path378"
         inkscape:connector-curvature="0" /></g><path
       d="M 116,413.713 H 84.667 v 26.574 H 116 Z"
       style="fill:#d0c9e5;fill-opacity:1;fill-rule:nonzero;stroke:none"
       id="path380"
       inkscape:connector-curvature="0" /></g></g><text
   transform="scale(1,-1)"
   style="font-variant:normal;font-weight:normal;font-stretch:normal;font-size:21px;font-family:'Myriad Pro';-inkscape-font-specification:MyriadPro-Regular;writing-mode:lr-tb;fill:#1d1d1b;fill-opacity:1;fill-rule:nonzero;stroke:none"
   id="text384"
   x="0.68973541"
   y="-451.04935"><tspan
     x="0.68973541 11.546736 23.117735 30.068735 42.017735 46.973736 57.494736 61.946735 75.617737 87.146736 99.095734 110.75073 121.27174 128.13873 132.59074 143.76274 150.96574"
     y="-451.04935"
     sodipodi:role="line"
     id="tspan382">Purple Gopher P/S</tspan></text>

<g
   id="g386"
   transform="translate(-135.79466,28.45996)"><g
     id="g388"
     clip-path="url(#clipPath392)"><path
       d="M 76,372.713 H 44.667 v 26.574 H 76 Z"
       style="fill:#d6b6ca;fill-opacity:1;fill-rule:nonzero;stroke:none"
       id="path394"
       inkscape:connector-curvature="0" /><g
       id="g396"
       transform="translate(76,374.2129)"><path
         d="m 0,0 h -31.333 l 1.5,-1.5 v 26.574 l -1.5,-1.5 H 0 l -1.5,1.5 V -1.5 c 0,-1.935 3,-1.935 3,0 v 26.574 c 0,0.818 -0.682,1.5 -1.5,1.5 h -31.333 c -0.818,0 -1.5,-0.682 -1.5,-1.5 V -1.5 c 0,-0.817 0.682,-1.5 1.5,-1.5 H 0 c 1.935,0 1.935,3 0,3"
         style="fill:#000000;fill-opacity:1;fill-rule:nonzero;stroke:none"
         id="path398"
         inkscape:connector-curvature="0" /></g><path
       d="M 116,372.713 H 84.667 v 26.574 H 116 Z"
       style="fill:#f3d6e9;fill-opacity:1;fill-rule:nonzero;stroke:none"
       id="path400"
       inkscape:connector-curvature="0" /></g></g><text
   transform="scale(1,-1)"
   style="font-variant:normal;font-weight:normal;font-stretch:normal;font-size:21px;font-family:'Myriad Pro';-inkscape-font-specification:MyriadPro-Regular;writing-mode:lr-tb;fill:#1d1d1b;fill-opacity:1;fill-rule:nonzero;stroke:none"
   id="text404"
   x="0.68973541"
   y="-410.04935"><tspan
     x="0.68973541 11.525736 16.439735 28.094736 37.943737 42.395737 56.066734 67.595734 79.544739 91.199738 101.72073 108.58774 113.03973 124.21174 131.41475"
     y="-410.04935"
     sodipodi:role="line"
     id="tspan402">Pink Gopher P/S</tspan></text>

<g
   id="g406"
   transform="translate(-135.79466,28.45996)"><g
     id="g408"
     clip-path="url(#clipPath412)"><path
       d="M 76,452.713 H 44.667 v 26.574 H 76 Z"
       style="fill:#b6d8d5;fill-opacity:1;fill-rule:nonzero;stroke:none"
       id="path414"
       inkscape:connector-curvature="0" /><g
       id="g416"
       transform="translate(76,454.2129)"><path
         d="m 0,0 h -31.333 l 1.5,-1.5 v 26.574 l -1.5,-1.5 H 0 l -1.5,1.5 V -1.5 c 0,-1.935 3,-1.935 3,0 v 26.574 c 0,0.818 -0.682,1.5 -1.5,1.5 h -31.333 c -0.818,0 -1.5,-0.682 -1.5,-1.5 V -1.5 c 0,-0.817 0.682,-1.5 1.5,-1.5 H 0 c 1.935,0 1.935,3 0,3"
         style="fill:#000000;fill-opacity:1;fill-rule:nonzero;stroke:none"
         id="path418"
         inkscape:connector-curvature="0" /></g><path
       d="M 116,452.713 H 84.667 v 26.574 H 116 Z"
       style="fill:#cee9ec;fill-opacity:1;fill-rule:nonzero;stroke:none"
       id="path420"
       inkscape:connector-curvature="0" /></g></g><text
   transform="scale(1,-1)"
   style="font-variant:normal;font-weight:normal;font-stretch:normal;font-size:21px;font-family:'Myriad Pro';-inkscape-font-specification:MyriadPro-Regular;writing-mode:lr-tb;fill:#1d1d1b;fill-opacity:1;fill-rule:nonzero;stroke:none"
   id="text424"
   x="0.68973541"
   y="-490.04935"><tspan
     x="0.68973541 12.071735 17.027735 28.598736 39.707737 46.154736 56.927734 61.379734 75.050735 86.579735 98.528732 110.18374 120.70473 127.57174 132.02374 143.19574 150.39874"
     y="-490.04935"
     sodipodi:role="line"
     id="tspan422">Blue-2 Gopher P/S</tspan></text>

<g
   id="g426"
   transform="translate(-135.79466,28.45996)"><g
     id="g428"
     clip-path="url(#clipPath432)"><path
       d="M 76,492.713 H 44.667 v 26.574 H 76 Z"
       style="fill:#5ea9de;fill-opacity:1;fill-rule:nonzero;stroke:none"
       id="path434"
       inkscape:connector-curvature="0" /><g
       id="g436"
       transform="translate(76,494.2129)"><path
         d="m 0,0 h -31.333 l 1.5,-1.5 v 26.574 l -1.5,-1.5 H 0 l -1.5,1.5 V -1.5 c 0,-1.935 3,-1.935 3,0 v 26.574 c 0,0.818 -0.682,1.5 -1.5,1.5 h -31.333 c -0.818,0 -1.5,-0.682 -1.5,-1.5 V -1.5 c 0,-0.818 0.682,-1.5 1.5,-1.5 H 0 c 1.935,0 1.935,3 0,3"
         style="fill:#000000;fill-opacity:1;fill-rule:nonzero;stroke:none"
         id="path438"
         inkscape:connector-curvature="0" /></g><path
       d="M 116,492.713 H 84.667 v 26.574 H 116 Z"
       style="fill:#b8d9ed;fill-opacity:1;fill-rule:nonzero;stroke:none"
       id="path440"
       inkscape:connector-curvature="0" /></g></g><text
   transform="scale(1,-1)"
   style="font-variant:normal;font-weight:normal;font-stretch:normal;font-size:21px;font-family:'Myriad Pro';-inkscape-font-specification:MyriadPro-Regular;writing-mode:lr-tb;fill:#1d1d1b;fill-opacity:1;fill-rule:nonzero;stroke:none"
   id="text444"
   x="0.68973541"
   y="-530.04938"><tspan
     x="0.68973541 12.071735 17.027735 28.598736 39.119736 43.571735 57.242737 68.771736 80.720734 92.375732 102.89674 109.76373 114.21574 125.38773 132.59074"
     y="-530.04938"
     sodipodi:role="line"
     id="tspan442">Blue Gopher P/S</tspan></text>

<g
   id="g446"
   transform="translate(-135.79466,28.45996)"><g
     id="g448"
     clip-path="url(#clipPath452)"><path
       d="M 76,532.713 H 44.667 v 26.574 H 76 Z"
       style="fill:#8fc474;fill-opacity:1;fill-rule:nonzero;stroke:none"
       id="path454"
       inkscape:connector-curvature="0" /><g
       id="g456"
       transform="translate(76,534.2129)"><path
         d="m 0,0 h -31.333 l 1.5,-1.5 v 26.574 l -1.5,-1.5 H 0 l -1.5,1.5 V -1.5 c 0,-1.935 3,-1.935 3,0 v 26.574 c 0,0.818 -0.682,1.5 -1.5,1.5 h -31.333 c -0.818,0 -1.5,-0.682 -1.5,-1.5 V -1.5 c 0,-0.818 0.682,-1.5 1.5,-1.5 H 0 c 1.935,0 1.935,3 0,3"
         style="fill:#000000;fill-opacity:1;fill-rule:nonzero;stroke:none"
         id="path458"
         inkscape:connector-curvature="0" /></g><path
       d="M 116,532.713 H 84.667 v 26.574 H 116 Z"
       style="fill:#c8e0b6;fill-opacity:1;fill-rule:nonzero;stroke:none"
       id="path460"
       inkscape:connector-curvature="0" /></g></g><text
   transform="scale(1,-1)"
   style="font-variant:normal;font-weight:normal;font-stretch:normal;font-size:21px;font-family:'Myriad Pro';-inkscape-font-specification:MyriadPro-Regular;writing-mode:lr-tb;fill:#1d1d1b;fill-opacity:1;fill-rule:nonzero;stroke:none"
   id="text464"
   x="0.68973541"
   y="-570.04938"><tspan
     x="0.68973541 14.255735 20.912735 31.433735 41.954735 53.609734 58.061737 71.732735 83.261734 95.210739 106.86574 117.38673 124.25374 128.70575 139.87775 147.08075"
     y="-570.04938"
     sodipodi:role="line"
     id="tspan462">Green Gopher P/S</tspan></text>

<g
   id="g466"
   transform="translate(-135.79466,28.45996)"><g
     id="g468"
     clip-path="url(#clipPath472)"><path
       d="M 76,332.713 H 44.667 v 26.574 H 76 Z"
       style="fill:#f4d5b8;fill-opacity:1;fill-rule:nonzero;stroke:none"
       id="path474"
       inkscape:connector-curvature="0" /><g
       id="g476"
       transform="translate(76,334.2129)"><path
         d="m 0,0 h -31.333 l 1.5,-1.5 v 26.574 l -1.5,-1.5 H 0 l -1.5,1.5 V -1.5 c 0,-1.935 3,-1.935 3,0 v 26.574 c 0,0.819 -0.682,1.5 -1.5,1.5 h -31.333 c -0.818,0 -1.5,-0.681 -1.5,-1.5 V -1.5 c 0,-0.817 0.682,-1.5 1.5,-1.5 H 0 c 1.935,0 1.935,3 0,3"
         style="fill:#000000;fill-opacity:1;fill-rule:nonzero;stroke:none"
         id="path478"
         inkscape:connector-curvature="0" /></g></g></g><text
   transform="scale(1,-1)"
   style="font-variant:normal;font-weight:normal;font-stretch:normal;font-size:21px;font-family:'Myriad Pro';-inkscape-font-specification:MyriadPro-Regular;writing-mode:lr-tb;fill:#1d1d1b;fill-opacity:1;fill-rule:nonzero;stroke:none"
   id="text482"
   x="-49.310265"
   y="-370.04935"><tspan
     x="-49.310265 -38.957264 -28.751265 -23.837265"
     y="-370.04935"
     sodipodi:role="line"
     id="tspan480">Skin</tspan></text>

<g
   id="g484"
   transform="translate(-135.79466,28.45996)"><g
     id="g486"
     clip-path="url(#clipPath490)"><path
       d="M 76,292.713 H 44.667 v 26.574 H 76 Z"
       style="fill:#9b8e7d;fill-opacity:1;fill-rule:nonzero;stroke:none"
       id="path492"
       inkscape:connector-curvature="0" /><g
       id="g494"
       transform="translate(76,294.2129)"><path
         d="m 0,0 h -31.333 l 1.5,-1.5 v 26.574 l -1.5,-1.5 H 0 l -1.5,1.5 V -1.5 c 0,-1.935 3,-1.935 3,0 v 26.574 c 0,0.819 -0.682,1.5 -1.5,1.5 h -31.333 c -0.818,0 -1.5,-0.681 -1.5,-1.5 V -1.5 c 0,-0.817 0.682,-1.5 1.5,-1.5 H 0 c 1.935,0 1.935,3 0,3"
         style="fill:#000000;fill-opacity:1;fill-rule:nonzero;stroke:none"
         id="path496"
         inkscape:connector-curvature="0" /></g></g></g><text
   transform="scale(1,-1)"
   style="font-variant:normal;font-weight:normal;font-stretch:normal;font-size:21px;font-family:'Myriad Pro';-inkscape-font-specification:MyriadPro-Regular;writing-mode:lr-tb;fill:#1d1d1b;fill-opacity:1;fill-rule:nonzero;stroke:none"
   id="text500"
   x="-49.310265"
   y="-330.04935"><tspan
     x="-49.310265 -35.492264 -23.963264 -15.647266"
     y="-330.04935"
     sodipodi:role="line"
     id="tspan498">Nose</tspan></text>

<g
   id="g502"
   transform="translate(-135.79466,28.45996)"><g
     id="g504"
     clip-path="url(#clipPath508)"><path
       d="M 76,252.713 H 44.667 v 26.574 H 76 Z"
       style="fill:#ffffff;fill-opacity:1;fill-rule:nonzero;stroke:none"
       id="path510"
       inkscape:connector-curvature="0" /><g
       id="g512"
       transform="translate(76,254.2129)"><path
         d="m 0,0 h -31.333 l 1.5,-1.5 v 26.574 l -1.5,-1.5 H 0 l -1.5,1.5 V -1.5 c 0,-1.935 3,-1.935 3,0 v 26.574 c 0,0.819 -0.682,1.5 -1.5,1.5 h -31.333 c -0.818,0 -1.5,-0.681 -1.5,-1.5 V -1.5 c 0,-0.817 0.682,-1.5 1.5,-1.5 H 0 c 1.935,0 1.935,3 0,3"
         style="fill:#000000;fill-opacity:1;fill-rule:nonzero;stroke:none"
         id="path514"
         inkscape:connector-curvature="0" /></g></g></g><text
   transform="scale(1,-1)"
   style="font-variant:normal;font-weight:normal;font-stretch:normal;font-size:21px;font-family:'Myriad Pro';-inkscape-font-specification:MyriadPro-Regular;writing-mode:lr-tb;fill:#1d1d1b;fill-opacity:1;fill-rule:nonzero;stroke:none"
   id="text518"
   x="-49.310265"
   y="-290.04935"><tspan
     x="-49.310265 -31.649265 -19.994265 -15.080265 -8.2552643"
     y="-290.04935"
     sodipodi:role="line"
     id="tspan516">White</tspan></text>

<g
   id="g520"
   transform="translate(-135.79466,28.45996)"><g
     id="g522"
     clip-path="url(#clipPath526)"><g
       id="g528"
       transform="translate(76,214.2129)"><path
         d="m 0,0 h -31.333 l 1.5,-1.5 v 26.574 l -1.5,-1.5 H 0 l -1.5,1.5 V -1.5 c 0,-1.935 3,-1.935 3,0 v 26.574 c 0,0.819 -0.682,1.5 -1.5,1.5 h -31.333 c -0.818,0 -1.5,-0.681 -1.5,-1.5 V -1.5 c 0,-0.817 0.682,-1.5 1.5,-1.5 H 0 c 1.935,0 1.935,3 0,3"
         style="fill:#000000;fill-opacity:1;fill-rule:nonzero;stroke:none"
         id="path530"
         inkscape:connector-curvature="0" /></g></g></g><text
   transform="scale(1,-1)"
   style="font-variant:normal;font-weight:normal;font-stretch:normal;font-size:21px;font-family:'Myriad Pro';-inkscape-font-specification:MyriadPro-Regular;writing-mode:lr-tb;fill:#1d1d1b;fill-opacity:1;fill-rule:nonzero;stroke:none"
   id="text534"
   x="-49.310265"
   y="-246.04936"><tspan
     x="-49.310265 -39.818264 -33.056263 -22.934265 -11.279266 -2.9632645 8.9857368 19.107735 25.764732 36.285736 47.856735"
     y="-246.04936"
     sodipodi:role="line"
     id="tspan532">Transparent</tspan></text>

<g
   id="g536"
   transform="translate(-21.954826,34.151952)"><g
     id="g538"
     clip-path="url(#clipPath542)"><g
       id="g544"
       transform="translate(740.3086,387.0098)"><path
         d="m 0,0 c 0,0 11.507,-0.41 21.489,3.783 9.983,4.192 23.651,8.014 21.389,22.578 -1.391,8.955 -22.921,4.354 -22.921,4.354 0,0 -15.763,-5.819 -26.229,-5.227"
         style="fill:#f4d5b8;fill-opacity:1;fill-rule:nonzero;stroke:none"
         id="path546"
         inkscape:connector-curvature="0" /></g><g
       id="g548"
       transform="translate(740.3086,385.5098)"><path
         d="m 0,0 c 11.194,-0.319 21.678,3.307 31.696,7.961 4.585,2.129 8.774,5.082 11.26,9.573 1.95,3.521 2.846,10.012 0.207,13.404 -4.627,5.948 -15.523,4.092 -21.917,3.038 -9.364,-1.545 -17.688,-5.812 -27.518,-5.488 -1.936,0.064 -1.93,-2.936 0,-3 14.632,-0.483 28.062,8.833 42.766,5.917 6.05,-1.2 6.041,-7.563 3.871,-12.357 C 38.331,14.552 33.372,12.033 29.133,10.063 19.953,5.799 10.229,2.708 0,3 -1.936,3.056 -1.931,0.055 0,0"
         style="fill:#000000;fill-opacity:1;fill-rule:nonzero;stroke:none"
         id="path550"
         inkscape:connector-curvature="0" /></g><g
       id="g552"
       transform="translate(636.2334,581.5347)"><path
         d="m 0,0 c 0,0 0.25,26.25 14.25,26 14,-0.25 8.25,-30.5 8.25,-30.5"
         style="fill:#b6d8d5;fill-opacity:1;fill-rule:nonzero;stroke:none"
         id="path554"
         inkscape:connector-curvature="0" /></g><g
       id="g556"
       transform="translate(637.7334,581.5347)"><path
         d="M 0,0 C 0.109,8.048 2.706,27.261 14.663,24.198 23.697,21.883 20.776,2.439 19.554,-4.101 19.2,-5.992 22.091,-6.799 22.446,-4.899 24.132,4.118 26.798,24.186 14.735,27.276 0.778,30.852 -2.873,9.36 -3,0 -3.026,-1.936 -0.026,-1.933 0,0"
         style="fill:#000000;fill-opacity:1;fill-rule:nonzero;stroke:none"
         id="path558"
         inkscape:connector-curvature="0" /></g><g
       id="g560"
       transform="translate(642.4307,217.6982)"><path
         d="M 0,0 C 0,0 19.75,-34.123 30.371,-27.438 40.993,-20.752 16.677,8.043 16.677,8.043"
         style="fill:#f4d5b8;fill-opacity:1;fill-rule:nonzero;stroke:none"
         id="path562"
         inkscape:connector-curvature="0" /></g><g
       id="g564"
       transform="translate(641.1357,216.9414)"><path
         d="m 0,0 c 3.529,-6.072 7.606,-11.876 12.067,-17.296 4.323,-5.251 12.047,-14.278 19.818,-10.98 7.744,3.287 2.416,14.752 -0.111,19.614 C 28.34,-2.055 23.823,4.165 19.032,9.86 17.785,11.343 15.675,9.209 16.911,7.739 20.755,3.17 40.995,-22.507 29.609,-25.94 22.943,-27.95 14.604,-15.867 11.366,-11.611 8.187,-7.433 5.229,-3.027 2.59,1.514 1.619,3.186 -0.975,1.676 0,0"
         style="fill:#000000;fill-opacity:1;fill-rule:nonzero;stroke:none"
         id="path566"
         inkscape:connector-curvature="0" /></g><g
       id="g568"
       transform="translate(471.2334,282.2852)"><path
         d="m 0,0 c -13.25,1.5 -13.25,3.25 -20,1.5 -6.75,-1.75 -25,-13 -18,-18.25 7,-5.25 7.75,-7 17,-5.5 9.25,1.5 28.5,5.75 28.5,5.75"
         style="fill:#b6d8d5;fill-opacity:1;fill-rule:nonzero;stroke:none"
         id="path570"
         inkscape:connector-curvature="0" /></g><g
       id="g572"
       transform="translate(471.2334,283.7852)"><path
         d="m 0,0 c -8.839,1.056 -16.012,3.633 -24.489,-0.101 -5.379,-2.369 -17.404,-8.626 -16.509,-16.003 0.433,-3.566 5.612,-6.176 8.257,-7.884 3.943,-2.545 8.737,-1.774 13.097,-1.049 9.235,1.532 18.403,3.576 27.543,5.591 1.889,0.416 1.087,3.308 -0.798,2.892 -6.076,-1.339 -12.164,-2.622 -18.265,-3.846 -4.693,-0.943 -9.457,-2.021 -14.24,-2.349 -4.784,-0.329 -8.702,3.098 -12.103,6.053 -4.713,4.094 13.849,13.815 16.56,14.83 C -14.272,0.633 -6.766,-2.191 0,-3 1.918,-3.229 1.896,-0.227 0,0"
         style="fill:#000000;fill-opacity:1;fill-rule:nonzero;stroke:none"
         id="path574"
         inkscape:connector-curvature="0" /></g><g
       id="g576"
       transform="translate(792.3389,500.877)"><path
         d="m 0,0 c 0,-23.748 -20.283,-43 -45.303,-43 -25.019,0 -45.302,19.252 -45.302,43 0,23.748 20.283,43 45.302,43 C -20.283,43 0,23.748 0,0"
         style="fill:#ffffff;fill-opacity:1;fill-rule:nonzero;stroke:none"
         id="path578"
         inkscape:connector-curvature="0" /></g><g
       id="g580"
       transform="translate(790.8389,500.877)"><path
         d="M 0,0 C -0.391,-23.821 -20.633,-41.158 -43.803,-41.5 -66.976,-41.842 -87.223,-23.31 -87.605,0 -87.996,23.821 -66.38,41.167 -43.803,41.5 -20.63,41.842 -0.383,23.31 0,0 0.031,-1.933 3.032,-1.936 3,0 2.647,21.477 -12.946,38.792 -33.596,43.436 -54.46,48.127 -76.709,37.734 -86.293,18.672 c -9.5,-18.894 -2.534,-41.22 13.698,-53.747 16.85,-13.002 42.528,-12.397 58.927,1.036 C -3.303,-25.548 2.779,-13.431 3,0 3.032,1.936 0.031,1.933 0,0"
         style="fill:#000000;fill-opacity:1;fill-rule:nonzero;stroke:none"
         id="path582"
         inkscape:connector-curvature="0" /></g><g
       id="g584"
       transform="translate(792.3389,501.3604)"><path
         d="m 0,0 c 0,-6.262 -5.223,-11.338 -11.666,-11.338 -6.443,0 -11.666,5.076 -11.666,11.338 0,6.262 5.223,11.338 11.666,11.338 C -5.223,11.338 0,6.262 0,0"
         style="fill:#000000;fill-opacity:1;fill-rule:nonzero;stroke:none"
         id="path586"
         inkscape:connector-curvature="0" /></g><g
       id="g588"
       transform="translate(792.3389,501.3604)"><path
         d="m 0,0 c 0,-6.262 -5.223,-11.338 -11.666,-11.338 -6.443,0 -11.666,5.076 -11.666,11.338 0,6.262 5.223,11.338 11.666,11.338 C -5.223,11.338 0,6.262 0,0 Z"
         style="fill:none;stroke:#1d1d1b;stroke-width:1;stroke-linecap:butt;stroke-linejoin:miter;stroke-miterlimit:10;stroke-dasharray:none;stroke-opacity:1"
         id="path590"
         inkscape:connector-curvature="0" /></g><g
       id="g592"
       transform="translate(783.5029,502.2109)"><path
         d="m 0,0 c 0,-2.039 -1.658,-3.691 -3.705,-3.691 -2.047,0 -3.707,1.652 -3.707,3.691 0,2.038 1.66,3.691 3.707,3.691 C -1.658,3.691 0,2.038 0,0"
         style="fill:#ffffff;fill-opacity:1;fill-rule:nonzero;stroke:none"
         id="path594"
         inkscape:connector-curvature="0" /></g><g
       id="g596"
       transform="translate(783.5029,502.2109)"><path
         d="m 0,0 c 0,-2.039 -1.658,-3.691 -3.705,-3.691 -2.047,0 -3.707,1.652 -3.707,3.691 0,2.038 1.66,3.691 3.707,3.691 C -1.658,3.691 0,2.038 0,0 Z"
         style="fill:none;stroke:#1d1d1b;stroke-width:1;stroke-linecap:butt;stroke-linejoin:miter;stroke-miterlimit:10;stroke-dasharray:none;stroke-opacity:1"
         id="path598"
         inkscape:connector-curvature="0" /></g><g
       id="g600"
       transform="translate(483.5967,494.5347)"><path
         d="m 0,0 c 0.909,13.007 22,58 58,74 36,16 50,16 85,19 35,3 88,-28 98,-41 C 251,39 258,27.203 260,9.602 262,-8 262,-16 265,-34 c 3,-18 -1,-87 -12,-113 -7.273,-17.191 -18.481,-59.741 -42.876,-92.958 C 197.625,-256.977 181.665,-271.546 161,-279 c -61,-22 -97.007,-9.358 -106,-9 -25.896,1.032 -31.273,8.471 -61,44 -17.988,21.5 -20.863,47.24 -20.863,65.25 0,21.875 30,73.75 31,103.75 C 5.915,-21.646 -2.47,-35.333 0,0"
         style="fill:#b6d8d5;fill-opacity:1;fill-rule:nonzero;stroke:none"
         id="path602"
         inkscape:connector-curvature="0" /></g><g
       id="g604"
       transform="translate(485.0967,494.5347)"><path
         d="m 0,0 c 0.554,6.49 3.569,12.977 6.315,18.772 4.347,9.174 9.878,17.821 16.185,25.764 7.116,8.963 15.551,16.904 25.208,23.067 11.1,7.083 24.286,11.676 36.812,15.543 10.639,3.286 21.59,5.08 32.645,6.234 11.484,1.199 23.398,2.933 34.946,2.083 22.343,-1.644 44.478,-11.832 63.522,-23.064 7.174,-4.232 14.353,-8.908 20.35,-14.732 7.848,-7.624 14.003,-18.798 17.641,-29.007 4.459,-12.512 4.448,-26.386 5.778,-39.484 0.952,-9.368 2.954,-18.618 3.39,-28.028 0.897,-19.392 -0.691,-39.077 -2.952,-58.323 -1.218,-10.367 -2.841,-20.715 -5.245,-30.877 -1.794,-7.582 -4.707,-14.604 -7.387,-21.884 -17.021,-46.268 -35.461,-101.959 -85.116,-122.476 -23.397,-9.668 -49.801,-14.534 -75.095,-13.972 -7.486,0.167 -14.941,0.954 -22.329,2.155 -4.076,0.663 -8.13,1.596 -12.266,1.777 -7.768,0.342 -15.399,1.591 -22.243,5.449 -7.67,4.323 -13.743,11.33 -19.495,17.845 -9.356,10.598 -19.419,21.365 -26.254,33.797 -6.259,11.383 -9.402,24.306 -10.673,37.155 -0.893,9.024 -0.79,17.486 1.573,26.255 2.684,9.962 6.614,19.601 10.371,29.193 7.584,19.362 17.076,39.714 18.412,60.751 0.933,14.696 0.733,30.022 -2.108,44.525 C -0.1,-20.842 -0.732,-10.881 0,0 c 0.13,1.932 -2.871,1.919 -3,0 -0.492,-7.303 -0.777,-14.658 0.172,-21.937 0.617,-4.728 1.807,-9.356 2.597,-14.055 3.285,-19.54 2.865,-40.991 -2.534,-60.046 -6.08,-21.454 -15.919,-41.611 -22.894,-62.759 -6.072,-18.411 -4.82,-37.458 0.757,-55.951 3.779,-12.534 10.491,-23.313 18.831,-33.29 7.63,-9.126 15.108,-18.504 23.615,-26.841 5.045,-4.946 10.69,-9.116 17.339,-11.608 6.441,-2.415 13.124,-2.39 19.853,-3.115 12.756,-1.373 24.943,-3.901 37.898,-3.828 24.827,0.141 50.791,5.632 73.538,15.515 46.587,20.243 66.409,73.962 82.161,118.271 2.579,7.254 5.728,14.317 7.84,21.725 2.668,9.353 4.26,19.023 5.619,28.639 2.807,19.851 4.316,40.04 4.16,60.093 -0.059,7.746 -0.995,15.096 -2.122,22.745 -1.864,12.654 -2.254,25.478 -4.093,38.128 -2.813,19.36 -13.248,38.319 -28.902,50.225 -16.349,12.435 -35.841,21.731 -55.394,27.823 -9.839,3.066 -20.163,5.099 -30.5,4.952 C 133.159,94.519 121.036,92.983 109.35,91.473 95.016,89.622 81.301,85.721 67.871,80.423 53.24,74.651 40.412,67.59 29.161,56.48 19.649,47.089 11.838,35.887 5.625,24.085 1.77,16.763 -2.286,8.373 -3,0 -3.165,-1.929 -0.163,-1.913 0,0"
         style="fill:#000000;fill-opacity:1;fill-rule:nonzero;stroke:none"
         id="path606"
         inkscape:connector-curvature="0" /></g><g
       id="g608"
       transform="translate(513.2334,218.0352)"><path
         d="M 0,0 C 0,0 -10.5,-31.75 5.5,-33.5 21.5,-35.25 23,-4.25 23,-4.25"
         style="fill:#f4d5b8;fill-opacity:1;fill-rule:nonzero;stroke:none"
         id="path610"
         inkscape:connector-curvature="0" /></g><g
       id="g612"
       transform="translate(511.7871,218.4336)"><path
         d="m 0,0 c -3.175,-9.697 -8.658,-33.092 6.547,-35.345 14.919,-2.21 18.851,20.091 19.399,30.697 0.1,1.934 -2.9,1.924 -3,0 C 22.472,-13.827 19.385,-34.236 6.483,-32.324 -5.52,-30.546 0.517,-8.054 2.893,-0.797 3.497,1.047 0.599,1.83 0,0"
         style="fill:#000000;fill-opacity:1;fill-rule:nonzero;stroke:none"
         id="path614"
         inkscape:connector-curvature="0" /></g><g
       id="g616"
       transform="translate(510.0459,222.375)"><path
         d="m 0,0 c 0,0 2.362,-11.875 7.241,-15.042 0,0 0.88,8.5 1.713,8.833 0.834,0.333 12.167,-8.999 10.5,-10.333 -1.666,-1.334 9.688,5.904 9.677,9.202"
         style="fill:#b6d8d5;fill-opacity:1;fill-rule:nonzero;stroke:none"
         id="path618"
         inkscape:connector-curvature="0" /></g><g
       id="g620"
       transform="translate(508.5996,221.9766)"><path
         d="m 0,0 c 1.155,-5.636 3.161,-12.342 7.931,-15.938 1.009,-0.762 2.152,0.308 2.257,1.294 0.155,1.469 0.348,2.933 0.566,4.393 0.137,0.912 0.317,1.813 0.52,2.711 0.219,0.975 -1.292,0.458 0.16,-0.537 1.249,-0.857 8.099,-7.276 8.254,-7.14 -0.371,-0.324 -0.558,-0.992 -0.386,-1.459 0.003,-0.009 0.006,-0.016 0.009,-0.025 0.351,-0.952 1.283,-1.345 2.204,-0.897 3.521,1.714 9.897,6.1 10.509,10.258 0.279,1.892 -2.612,2.705 -2.893,0.797 -0.485,-3.291 -6.317,-7.095 -9.131,-8.464 0.735,-0.299 1.469,-0.597 2.204,-0.896 0.304,-0.826 -0.598,-1.88 0.137,-0.78 0.209,0.313 0.203,0.699 0.215,1.057 0.034,1.053 -0.898,2.17 -1.528,2.906 -2.35,2.747 -5.161,5.112 -8.08,7.233 -5.482,3.985 -5.395,-5.705 -5.76,-9.157 0.752,0.432 1.504,0.864 2.256,1.295 C 5.419,-10.313 3.864,-3.938 2.893,0.797 2.504,2.691 -0.387,1.888 0,0"
         style="fill:#000000;fill-opacity:1;fill-rule:nonzero;stroke:none"
         id="path622"
         inkscape:connector-curvature="0" /></g><g
       id="g624"
       transform="translate(639.667,234.5527)"><path
         d="m 0,0 c -20.667,11.114 -21.145,27.75 -5,48.447 11.865,15.212 25.333,30.333 32.732,74 3.933,23.208 26.819,50.574 48.043,48.953 C 97,169.78 106.981,147.237 99.206,125.646 91.43,104.056 63.099,21.169 42.716,10.475 42.716,10.475 18.798,-10.109 0,0"
         style="fill:#cee9ec;fill-opacity:1;fill-rule:nonzero;stroke:none"
         id="path626"
         inkscape:connector-curvature="0" /></g><g
       id="g628"
       transform="translate(689.3389,490.5347)"><path
         d="m 0,0 c 0,-28.167 -24.387,-51 -54.469,-51 -30.083,0 -54.47,22.833 -54.47,51 0,28.167 24.387,51 54.47,51 C -24.387,51 0,28.167 0,0"
         style="fill:#ffffff;fill-opacity:1;fill-rule:nonzero;stroke:none"
         id="path630"
         inkscape:connector-curvature="0" /></g><g
       id="g632"
       transform="translate(687.8389,490.5347)"><path
         d="m 0,0 c -0.349,-24.958 -19.498,-44.272 -43.423,-48.705 -24.459,-4.532 -50.443,8.91 -59.525,32.251 -9.017,23.172 2.986,48.186 24.029,59.618 21.985,11.944 50.469,6.53 67.027,-11.906 C -4.2,22.695 -0.159,11.431 0,0 0.027,-1.933 3.027,-1.936 3,0 2.7,21.468 -10.841,39.745 -30.382,48.034 c -19.994,8.482 -43.604,4.573 -60.209,-9.169 -16.349,-13.53 -22.376,-36.242 -15.25,-56.116 7.157,-19.962 26.591,-32.699 47.126,-34.968 C -27.526,-55.666 2.554,-31.96 3,0 3.027,1.936 0.027,1.933 0,0"
         style="fill:#1d1d1b;fill-opacity:1;fill-rule:nonzero;stroke:none"
         id="path634"
         inkscape:connector-curvature="0" /></g><g
       id="g636"
       transform="translate(668.3994,497.8682)"><path
         d="m 0,0 c 0,-8.836 -7.909,-16 -17.666,-16 -9.757,0 -17.666,7.164 -17.666,16 0,8.836 7.909,16 17.666,16 C -7.909,16 0,8.836 0,0"
         style="fill:#000000;fill-opacity:1;fill-rule:nonzero;stroke:none"
         id="path638"
         inkscape:connector-curvature="0" /></g><g
       id="g640"
       transform="translate(668.3994,497.8682)"><path
         d="m 0,0 c 0,-8.836 -7.909,-16 -17.666,-16 -9.757,0 -17.666,7.164 -17.666,16 0,8.836 7.909,16 17.666,16 C -7.909,16 0,8.836 0,0 Z"
         style="fill:none;stroke:#1d1d1b;stroke-width:1;stroke-linecap:butt;stroke-linejoin:miter;stroke-miterlimit:10;stroke-dasharray:none;stroke-opacity:1"
         id="path642"
         inkscape:connector-curvature="0" /></g><g
       id="g644"
       transform="translate(650.7334,502.5161)"><path
         d="m 0,0 c 0,-2.567 -2.09,-4.648 -4.667,-4.648 -2.577,0 -4.667,2.081 -4.667,4.648 0,2.567 2.09,4.648 4.667,4.648 C -2.09,4.648 0,2.567 0,0"
         style="fill:#ffffff;fill-opacity:1;fill-rule:nonzero;stroke:none"
         id="path646"
         inkscape:connector-curvature="0" /></g><g
       id="g648"
       transform="translate(650.7334,502.5161)"><path
         d="m 0,0 c 0,-2.567 -2.09,-4.648 -4.667,-4.648 -2.577,0 -4.667,2.081 -4.667,4.648 0,2.567 2.09,4.648 4.667,4.648 C -2.09,4.648 0,2.567 0,0 Z"
         style="fill:none;stroke:#1d1d1b;stroke-width:1;stroke-linecap:butt;stroke-linejoin:miter;stroke-miterlimit:10;stroke-dasharray:none;stroke-opacity:1"
         id="path650"
         inkscape:connector-curvature="0" /></g><g
       id="g652"
       transform="translate(527.7334,540.5347)"><path
         d="m 0,0 -19.667,25 c 0,0 -9.833,15.906 5.5,22.203 C 1.167,53.5 11.667,41.333 12.5,40.167 13.333,39 25.667,20.333 25.667,20.333"
         style="fill:#b6d8d5;fill-opacity:1;fill-rule:nonzero;stroke:none"
         id="path654"
         inkscape:connector-curvature="0" /></g><g
       id="g656"
       transform="translate(528.7939,541.5952)"><path
         d="m 0,0 c -5.035,6.401 -10.07,12.801 -15.105,19.202 -4.102,5.214 -8.241,9.813 -7.045,17.405 1.354,8.596 13.062,10.772 20.067,9.323 4.47,-0.925 9.431,-3.892 12.227,-7.581 C 14.911,32.06 18.96,25.1 23.311,18.516 24.373,16.91 26.972,18.411 25.902,20.03 21.328,26.952 17.246,35 11.663,41.15 c -3.969,4.371 -9.541,7.241 -15.348,8.096 -6.518,0.961 -15.653,-1.349 -19.413,-7.235 -4.272,-6.688 -1.815,-15.16 2.767,-20.984 6.07,-7.716 12.14,-15.432 18.21,-23.148 C -0.926,-3.641 1.182,-1.502 0,0"
         style="fill:#000000;fill-opacity:1;fill-rule:nonzero;stroke:none"
         id="path658"
         inkscape:connector-curvature="0" /></g><g
       id="g660"
       transform="translate(525.2334,572.3682)"><path
         d="m 0,0 c 0,0 -0.104,-9 3.948,-13 4.052,-4 7.719,-6.833 9.719,-5.333 2,1.5 -3.5,12.5 -5.834,13.833 C 5.5,-3.167 4,0.5 0,0"
         style="fill:#020305;fill-opacity:1;fill-rule:nonzero;stroke:none"
         id="path662"
         inkscape:connector-curvature="0" /></g><g
       id="g664"
       transform="translate(523.7334,572.3682)"><path
         d="m 0,0 c -0.019,-4.495 0.861,-9.5 3.602,-13.153 1.339,-1.785 10.627,-10.975 13.058,-5.723 1.721,3.716 -1.787,9.276 -3.666,12.328 -1.186,1.927 -2.651,2.934 -4.246,4.444 -2.217,2.1 -4.019,3.747 -7.248,3.604 -1.927,-0.085 -1.935,-3.085 0,-3 2.773,0.123 6.465,-3.225 8.16,-5.462 1.95,-2.575 3.423,-5.76 4.253,-8.867 0.843,-3.154 -3.75,0.578 -4.458,1.158 -2.214,1.816 -4.081,3.699 -5.116,6.396 C 3.351,-5.695 2.988,-2.754 3,0 3.008,1.935 0.008,1.934 0,0"
         style="fill:#1d1d1b;fill-opacity:1;fill-rule:nonzero;stroke:none"
         id="path666"
         inkscape:connector-curvature="0" /></g><g
       id="g668"
       transform="translate(748.3105,493.0518)"><path
         d="m 0,0 c 0,-7.281 -8.208,-13.184 -18.333,-13.184 -10.125,0 -18.334,5.903 -18.334,13.184 0,7.281 8.209,13.184 18.334,13.184 C -8.208,13.184 0,7.281 0,0"
         style="fill:#9b8e7d;fill-opacity:1;fill-rule:nonzero;stroke:none"
         id="path670"
         inkscape:connector-curvature="0" /></g><g
       id="g672"
       transform="translate(746.8105,493.0518)"><path
         d="m 0,0 c -0.933,-15.759 -32.734,-15.759 -33.667,0 -0.49,8.28 10.556,11.492 16.834,11.684 C -9.797,11.899 -0.474,8.007 0,0 0.113,-1.922 3.114,-1.934 3,0 1.837,19.66 -35.504,19.66 -36.667,0 -37.261,-10.034 -24.741,-14.441 -16.833,-14.684 -7.987,-14.954 2.427,-9.692 3,0 3.114,1.934 0.113,1.922 0,0"
         style="fill:#000000;fill-opacity:1;fill-rule:nonzero;stroke:none"
         id="path674"
         inkscape:connector-curvature="0" /></g><g
       id="g676"
       transform="translate(716.5107,461.9648)"><path
         d="m 0,0 v -24.75 c 0,0 -1.379,-3.441 8.27,-3.934 9.649,-0.492 10.751,0 10.751,0 0,0 4.961,-1.638 6.891,6.393 1.931,8.031 6.894,23.111 6.894,23.111 z"
         style="fill:#ffffff;fill-opacity:1;fill-rule:nonzero;stroke:none"
         id="path678"
         inkscape:connector-curvature="0" /></g><g
       id="g680"
       transform="translate(715.0107,461.9648)"><path
         d="m 0,0 v -21.921 c 0,-2.042 -0.415,-2.675 0.126,-4.343 1.145,-3.528 6.747,-3.704 9.644,-3.92 3.369,-0.251 7.774,-0.89 11.133,0.048 -1.569,-0.438 0.926,-0.181 1.489,-0.111 1.657,0.21 2.929,1.123 4.042,2.319 3.466,3.724 4.035,11.35 5.454,16.08 1.232,4.107 2.526,8.196 3.864,12.269 C 36.054,1.339 35.249,2.344 34.306,2.32 23.37,2.047 12.436,1.773 1.5,1.5 c -1.931,-0.048 -1.936,-3.048 0,-3 10.936,0.273 21.87,0.547 32.806,0.82 -0.483,0.633 -0.964,1.266 -1.447,1.899 -2.505,-7.631 -4.967,-15.311 -6.893,-23.111 -0.574,-2.327 -1.715,-5.378 -4.537,-5.427 -0.456,-0.008 -0.858,0.244 -1.324,0.076 -2.368,-0.858 -6.104,-0.12 -8.517,-0.027 C 9.414,-27.185 3,-27.322 3,-24.7 V -18.042 0 C 3,1.935 0,1.935 0,0"
         style="fill:#000000;fill-opacity:1;fill-rule:nonzero;stroke:none"
         id="path682"
         inkscape:connector-curvature="0" /></g><g
       id="g684"
       transform="translate(728.834,483.377)"><path
         d="m 0,0 c 0,0 -8.404,3.956 -17.07,1.79 -8.668,-2.167 -18.834,-11.166 -18,-19.833 0.832,-8.668 9.666,-14.501 15,-14.668 2.012,-0.062 6.723,-1.832 17.736,-1.832 9.853,0 11.501,0.932 17.334,1.166 7.469,0.301 12.762,6 12.596,16.5 -0.166,10.5 -7.334,15.834 -15,15.334 C 4.93,-2.043 0,0 0,0"
         style="fill:#f4d5b8;fill-opacity:1;fill-rule:nonzero;stroke:none"
         id="path686"
         inkscape:connector-curvature="0" /></g><g
       id="g688"
       transform="translate(729.5908,484.6724)"><path
         d="m 0,0 c -13.778,6.253 -34.188,-0.124 -37.224,-16.461 -1.328,-7.154 4.143,-13.726 9.902,-17.077 4.753,-2.765 12.1,-3.084 17.458,-3.552 8.465,-0.739 16.797,0.351 25.211,1.003 7.191,0.558 11.424,6.52 12.656,13.117 1.359,7.284 -0.732,14.885 -6.863,19.269 -6.209,4.439 -14.638,1.153 -21.498,3.852 -1.802,0.709 -2.577,-2.193 -0.797,-2.893 4.469,-1.759 9.43,-1.695 14.139,-1.566 8.615,0.236 12.414,-7.996 12.339,-15.403 -0.078,-7.66 -4.494,-13.132 -12.194,-13.517 -6.072,-0.304 -11.983,-1.15 -18.099,-1.093 -10.49,0.099 -24.871,1.163 -28.895,12.741 -2.836,8.16 5.477,15.417 11.765,18.847 6.168,3.365 14.273,3.008 20.586,0.142 C 0.233,-3.384 1.76,-0.799 0,0"
         style="fill:#000000;fill-opacity:1;fill-rule:nonzero;stroke:none"
         id="path690"
         inkscape:connector-curvature="0" /></g><g
       id="g692"
       transform="translate(573.2549,358.0342)"><path
         d="m 0,0 c 0,0 -1.948,-10.389 0,-20.129 1.948,-9.739 7.792,-24.023 19.479,-21.427 11.688,2.598 5.194,19.804 5.194,19.804 0,0 -3.571,13.96 -1.623,23.375"
         style="fill:#f4d5b8;fill-opacity:1;fill-rule:nonzero;stroke:none"
         id="path694"
         inkscape:connector-curvature="0" /></g><g
       id="g696"
       transform="translate(571.8086,358.4326)"><path
         d="m 0,0 c -1.801,-10.016 -1.204,-20.82 2.82,-30.246 3.322,-7.779 11.25,-17.347 20.847,-12.353 6.744,3.51 6.314,11.721 4.731,18.119 -2.049,8.277 -3.977,16.722 -2.455,25.306 0.335,1.891 -2.555,2.7 -2.893,0.797 -1.376,-7.759 -0.29,-15.816 1.447,-23.44 1.011,-4.439 2.531,-8.507 1.592,-13.173 -0.989,-4.914 -6.067,-6.433 -10.478,-5.416 -4.861,1.121 -7.797,6.413 -9.719,10.548 C 1.77,-20.995 1.181,-10.319 2.893,-0.797 3.233,1.094 0.342,1.902 0,0"
         style="fill:#000000;fill-opacity:1;fill-rule:nonzero;stroke:none"
         id="path698"
         inkscape:connector-curvature="0" /></g><g
       id="g700"
       transform="translate(565.8335,362.583)"><path
         d="m 0,0 c 5.894,-8.667 20.225,-9.583 20.225,-9.583 0,0 -2.334,3.582 0,7.249 0,0 2.108,-4.416 6.442,-6.416 L 34.333,0"
         style="fill:#b6d8d5;fill-opacity:1;fill-rule:nonzero;stroke:none"
         id="path702"
         inkscape:connector-curvature="0" /></g><g
       id="g704"
       transform="translate(564.5381,361.8262)"><path
         d="m 0,0 c 4.929,-6.648 13.456,-9.75 21.52,-10.326 1.158,-0.083 1.839,1.329 1.295,2.257 -1.046,1.786 -1.012,3.591 0,5.735 h -2.59 c 1.523,-3.02 4.034,-5.364 6.98,-6.954 0.566,-0.306 1.366,-0.28 1.817,0.234 2.556,2.917 5.112,5.833 7.667,8.75 1.27,1.449 -0.843,3.579 -2.121,2.121 -2.555,-2.917 -5.111,-5.833 -7.667,-8.75 0.606,0.079 1.212,0.157 1.818,0.235 -2.531,1.366 -4.6,3.294 -5.904,5.878 -0.484,0.96 -2.118,1 -2.59,0 -1.383,-2.93 -1.704,-5.853 0,-8.763 0.432,0.752 0.863,1.505 1.295,2.257 C 14.626,-6.833 6.819,-4.189 2.591,1.514 1.452,3.049 -1.154,1.556 0,0"
         style="fill:#000000;fill-opacity:1;fill-rule:nonzero;stroke:none"
         id="path706"
         inkscape:connector-curvature="0" /></g><g
       id="g1629"
       transform="translate(-717.08802,-245.8355)"><path
         style="opacity:1;fill:#b1b1b1;fill-opacity:1;stroke:#000000;stroke-width:4.5704999;stroke-linejoin:round;stroke-miterlimit:4;stroke-dasharray:none;stroke-opacity:1;paint-order:stroke fill markers"
         d="m 918.41063,404.42848 a 22.499996,7.5 0.10329417 0 1 -21.68944,5.45552 22.499996,7.5 0.10329417 0 1 -22.45005,-7.29061 l -0.0364,-2.4e-4 9.5e-4,-0.24532 a 22.499996,7.5 0.10329417 0 1 -0.002,-0.005 22.499996,7.5 0.10329417 0 1 4.5e-4,-0.007 l 0.11565,-63.76992 a 22.499996,7.5 0.10329417 0 1 -9.6e-4,-0.003 22.499996,7.5 0.10329417 0 1 5.9e-4,-0.005 l 7e-5,-0.25567 0.027,-6e-5 a 22.499996,7.5 0.10329417 0 1 22.48529,-7.1984 22.499996,7.5 0.10329417 0 1 22.44901,7.27828 l 0.0384,4e-5 -10e-5,0.25771 3.3e-4,0.004 a 22.499996,7.5 0.10329417 0 1 -6.4e-4,0.005 l -0.11512,63.77609 a 22.499996,7.5 0.10329417 0 1 -7.8e-4,0.003 l 5e-5,0.24627 -0.027,1.2e-4 a 22.499996,7.5 0.10329417 0 1 -0.79592,1.75425 z"
         id="path1609"
         inkscape:connector-curvature="0" /><ellipse
         style="opacity:1;fill:#818181;fill-opacity:1;stroke:#000000;stroke-width:1.2000761;stroke-linejoin:round;stroke-miterlimit:4;stroke-dasharray:none;stroke-opacity:1;paint-order:stroke fill markers"
         id="ellipse1611"
         cx="900.7699"
         cy="-408.11578"
         rx="22.46624"
         ry="7.5084033"
         transform="matrix(0.99998098,-0.00616721,0.00975181,-0.99995245,0,0)"
         inkscape:transform-center-x="92.864621"
         inkscape:transform-center-y="-279.52643" /><path
         style="opacity:1;fill:#e4e4e4;fill-opacity:1;stroke:#000000;stroke-width:1.21160078;stroke-linejoin:round;stroke-miterlimit:4;stroke-dasharray:none;stroke-opacity:1;paint-order:stroke fill markers"
         d="m 874.09788,394.9845 c -0.004,-0.0111 -0.005,-0.0266 -0.009,-0.0381 a 0.71149904,1.8168636 0 0 0 0,-10e-4 0.71149904,1.8168636 0 0 0 0.2007,-1.26417 0.71149904,1.8168636 0 0 0 -0.10403,-0.94043 c 1.57395,-3.73027 11.28833,-6.21976 22.72118,-6.28564 11.3154,-0.0683 20.67982,2.56632 22.5,6.09082 a 0.71149904,1.8168636 0 0 0 -0.15525,1.13525 0.71149904,1.8168636 0 0 0 0.1992,1.2583 c -0.005,0.0107 -0.006,0.0216 -0.0117,0.0322 -1.32848,-3.76779 -11.06213,-6.55379 -22.66118,-6.48632 -11.29327,0.0711 -20.92132,2.83011 -22.68015,6.4995 z"
         id="path1613"
         inkscape:connector-curvature="0" /><path
         style="opacity:1;fill:#e4e4e4;fill-opacity:1;stroke:#000000;stroke-width:1.21160078;stroke-linejoin:round;stroke-miterlimit:4;stroke-dasharray:none;stroke-opacity:1;paint-order:stroke fill markers"
         d="m 874.0979,387.4845 c -0.004,-0.0111 -0.005,-0.0266 -0.009,-0.0381 a 0.71149904,1.8168636 0 0 0 0,-10e-4 0.71149904,1.8168636 0 0 0 0.2007,-1.26417 0.71149904,1.8168636 0 0 0 -0.10403,-0.94043 c 1.57395,-3.73027 11.28833,-6.21976 22.72118,-6.28564 11.3154,-0.0683 20.67982,2.56632 22.5,6.09082 a 0.71149904,1.8168636 0 0 0 -0.15525,1.13525 0.71149904,1.8168636 0 0 0 0.1992,1.2583 c -0.005,0.0107 -0.006,0.0216 -0.0117,0.0322 -1.32848,-3.76779 -11.06213,-6.55379 -22.66118,-6.48632 -11.29327,0.0711 -20.92132,2.83011 -22.68015,6.4995 z"
         id="path1615"
         inkscape:connector-curvature="0" /><path
         inkscape:connector-curvature="0"
         id="path1617"
         d="m 874.0979,379.9845 c -0.004,-0.0111 -0.005,-0.0266 -0.009,-0.0381 a 0.71149904,1.8168636 0 0 0 0,-10e-4 0.71149904,1.8168636 0 0 0 0.2007,-1.26417 0.71149904,1.8168636 0 0 0 -0.10403,-0.94043 c 1.57395,-3.73027 11.28833,-6.21976 22.72118,-6.28564 11.3154,-0.0683 20.67982,2.56632 22.5,6.09082 a 0.71149904,1.8168636 0 0 0 -0.15525,1.13525 0.71149904,1.8168636 0 0 0 0.1992,1.2583 c -0.005,0.0107 -0.006,0.0216 -0.0117,0.0322 -1.32848,-3.76779 -11.06213,-6.55379 -22.66118,-6.48632 -11.29327,0.0711 -20.92132,2.83011 -22.68015,6.4995 z"
         style="opacity:1;fill:#e4e4e4;fill-opacity:1;stroke:#000000;stroke-width:1.21160078;stroke-linejoin:round;stroke-miterlimit:4;stroke-dasharray:none;stroke-opacity:1;paint-order:stroke fill markers" /><path
         style="opacity:1;fill:#e4e4e4;fill-opacity:1;stroke:#000000;stroke-width:1.21160078;stroke-linejoin:round;stroke-miterlimit:4;stroke-dasharray:none;stroke-opacity:1;paint-order:stroke fill markers"
         d="m 874.0979,372.4845 c -0.004,-0.0111 -0.005,-0.0266 -0.009,-0.0381 a 0.71149904,1.8168636 0 0 0 0,-10e-4 0.71149904,1.8168636 0 0 0 0.2007,-1.26417 0.71149904,1.8168636 0 0 0 -0.10403,-0.94043 c 1.57395,-3.73027 11.28833,-6.21976 22.72118,-6.28564 11.3154,-0.0683 20.67982,2.56632 22.5,6.09082 a 0.71149904,1.8168636 0 0 0 -0.15525,1.13525 0.71149904,1.8168636 0 0 0 0.1992,1.2583 c -0.005,0.0107 -0.006,0.0216 -0.0117,0.0322 -1.32848,-3.76779 -11.06213,-6.55379 -22.66118,-6.48632 -11.29327,0.0711 -20.92132,2.83011 -22.68015,6.4995 z"
         id="path1619"
         inkscape:connector-curvature="0" /><path
         inkscape:connector-curvature="0"
         id="path1621"
         d="m 874.0979,364.9845 c -0.004,-0.0111 -0.005,-0.0266 -0.009,-0.0381 a 0.71149904,1.8168636 0 0 0 0,-10e-4 0.71149904,1.8168636 0 0 0 0.2007,-1.26417 0.71149904,1.8168636 0 0 0 -0.10403,-0.94043 c 1.57395,-3.73027 11.28833,-6.21976 22.72118,-6.28564 11.3154,-0.0683 20.67982,2.56632 22.5,6.09082 a 0.71149904,1.8168636 0 0 0 -0.15525,1.13525 0.71149904,1.8168636 0 0 0 0.1992,1.2583 c -0.005,0.0107 -0.006,0.0216 -0.0117,0.0322 -1.32848,-3.76779 -11.06213,-6.55379 -22.66118,-6.48632 -11.29327,0.0711 -20.92132,2.83011 -22.68015,6.4995 z"
         style="opacity:1;fill:#e4e4e4;fill-opacity:1;stroke:#000000;stroke-width:1.21160078;stroke-linejoin:round;stroke-miterlimit:4;stroke-dasharray:none;stroke-opacity:1;paint-order:stroke fill markers" /><path
         style="opacity:1;fill:#e4e4e4;fill-opacity:1;stroke:#000000;stroke-width:1.21160078;stroke-linejoin:round;stroke-miterlimit:4;stroke-dasharray:none;stroke-opacity:1;paint-order:stroke fill markers"
         d="m 874.0979,357.5595 c -0.004,-0.0111 -0.005,-0.0266 -0.009,-0.0381 a 0.71149904,1.8168636 0 0 0 0,-0.001 0.71149904,1.8168636 0 0 0 0.2007,-1.26417 0.71149904,1.8168636 0 0 0 -0.10403,-0.94043 c 1.57395,-3.73027 11.28833,-6.21976 22.72118,-6.28564 11.3154,-0.0683 20.67982,2.56632 22.5,6.09082 a 0.71149904,1.8168636 0 0 0 -0.15525,1.13525 0.71149904,1.8168636 0 0 0 0.1992,1.2583 c -0.005,0.0107 -0.006,0.0216 -0.0117,0.0322 -1.32848,-3.76779 -11.06213,-6.55379 -22.66118,-6.48632 -11.29327,0.0711 -20.92132,2.83011 -22.68015,6.4995 z"
         id="path1623"
         inkscape:connector-curvature="0" /><path
         inkscape:connector-curvature="0"
         id="path1625"
         d="m 874.0979,350.0595 c -0.004,-0.0111 -0.005,-0.0266 -0.009,-0.0381 a 0.71149904,1.8168636 0 0 0 0,-0.001 0.71149904,1.8168636 0 0 0 0.2007,-1.26417 0.71149904,1.8168636 0 0 0 -0.10403,-0.94043 c 1.57395,-3.73027 11.28833,-6.21976 22.72118,-6.28564 11.3154,-0.0683 20.67982,2.56632 22.5,6.09082 a 0.71149904,1.8168636 0 0 0 -0.15525,1.13525 0.71149904,1.8168636 0 0 0 0.1992,1.2583 c -0.005,0.0107 -0.006,0.0216 -0.0117,0.0322 -1.32848,-3.76779 -11.06213,-6.55379 -22.66118,-6.48632 -11.29327,0.0711 -20.92132,2.83011 -22.68015,6.4995 z"
         style="opacity:1;fill:#e4e4e4;fill-opacity:1;stroke:#000000;stroke-width:1.21160078;stroke-linejoin:round;stroke-miterlimit:4;stroke-dasharray:none;stroke-opacity:1;paint-order:stroke fill markers" /><path
         style="opacity:1;fill:#e4e4e4;fill-opacity:1;stroke:#000000;stroke-width:1.21160078;stroke-linejoin:round;stroke-miterlimit:4;stroke-dasharray:none;stroke-opacity:1;paint-order:stroke fill markers"
         d="m 874.0979,342.5595 c -0.004,-0.0111 -0.005,-0.0266 -0.009,-0.0381 a 0.71149904,1.8168636 0 0 0 0,-0.001 0.71149904,1.8168636 0 0 0 0.2007,-1.26417 0.71149904,1.8168636 0 0 0 -0.10403,-0.94043 c 1.57395,-3.73027 11.28833,-6.21976 22.72118,-6.28564 11.3154,-0.0683 20.67982,2.56632 22.5,6.09082 a 0.71149904,1.8168636 0 0 0 -0.15525,1.13525 0.71149904,1.8168636 0 0 0 0.1992,1.2583 c -0.005,0.0107 -0.006,0.0216 -0.0117,0.0322 -1.32848,-3.76779 -11.06213,-6.55379 -22.66118,-6.48632 -11.29327,0.0711 -20.92132,2.83011 -22.68015,6.4995 z"
         id="path1627"
         inkscape:connector-curvature="0" /></g><path
       style="fill:none;fill-rule:evenodd;stroke:#000000;stroke-width:4.05000019;stroke-linecap:butt;stroke-linejoin:round;stroke-miterlimit:4;stroke-dasharray:none;stroke-opacity:1"
       d="m 807.44972,366.72691 c -0.81314,-52.0403 -1.62629,-104.08137 -11.51921,-133.21923 -9.89292,-29.13786 -28.86597,-35.37186 -43.09663,-33.06782 -14.23066,2.30405 -23.71687,13.14542 -13.41669,21.27688 10.30018,8.13145 40.38659,13.55242 61.93426,10.97751 21.54768,-2.57491 34.5583,-13.14605 16.26317,-25.34298 -18.29514,-12.19692 -67.89708,-26.02041 -103.13721,-31.19243 -35.24014,-5.17202 -56.64516,-1.60452 -66.94484,5.17956 -10.29968,6.78407 -9.75838,16.79792 2.70926,26.55503 12.46765,9.75711 36.86382,19.24451 36.05107,10.16515 -0.81275,-9.07936 -26.83425,-36.7272 -55.15931,-43.63918 -28.32506,-6.91197 -58.95254,6.91105 -93.78252,35.77793 -34.82998,28.86687 -73.86034,72.77603 -82.05917,108.21583 -8.19883,35.4398 14.43363,62.40902 37.0654,89.37742"
       id="path1838"
       inkscape:connector-curvature="0"
       inkscape:path-effect="#path-effect1840"
       inkscape:original-d="m 807.44972,366.72691 c -0.8124,-52.04031 -1.62555,-104.08138 -2.43945,-156.1232 -18.97283,-6.23343 -37.94588,-12.46743 -56.9199,-18.70227 -9.48636,10.84316 -18.97256,21.68454 -28.45996,32.52568 30.08685,5.42166 60.17326,10.84263 90.25876,16.26283 13.01062,-10.56979 26.02125,-21.14093 39.03075,-31.71253 -49.60058,-13.82257 -99.20252,-27.64606 -148.80491,-41.47022 -20.87027,3.52442 -42.28262,7.04797 -63.42506,10.57084 0.81392,10.02978 1.08495,20.05824 1.62629,30.08624 24.39308,9.48666 48.78925,18.97406 73.18275,28.45996 -26.01882,-27.64504 -52.04032,-55.29288 -78.0616,-82.94046 -30.62845,13.82455 -61.25593,27.64758 -91.88501,41.47023 -39.03049,43.9109 -78.06086,87.82006 -117.09242,131.72896 22.63318,26.96993 45.26564,53.93915 67.89734,80.90761"
       sodipodi:nodetypes="cccccccccccccc" /><g
       id="g1607"
       transform="rotate(32.776946,794.73826,202.24077)"><path
         inkscape:connector-curvature="0"
         id="path1556"
         d="m 918.41063,404.42848 a 22.499996,7.5 0.10329417 0 1 -21.68944,5.45552 22.499996,7.5 0.10329417 0 1 -22.45005,-7.29061 l -0.0364,-2.4e-4 9.5e-4,-0.24532 a 22.499996,7.5 0.10329417 0 1 -0.002,-0.005 22.499996,7.5 0.10329417 0 1 4.5e-4,-0.007 l 0.11565,-63.76992 a 22.499996,7.5 0.10329417 0 1 -9.6e-4,-0.003 22.499996,7.5 0.10329417 0 1 5.9e-4,-0.005 l 7e-5,-0.25567 0.027,-6e-5 a 22.499996,7.5 0.10329417 0 1 22.48529,-7.1984 22.499996,7.5 0.10329417 0 1 22.44901,7.27828 l 0.0384,4e-5 -10e-5,0.25771 3.3e-4,0.004 a 22.499996,7.5 0.10329417 0 1 -6.4e-4,0.005 l -0.11512,63.77609 a 22.499996,7.5 0.10329417 0 1 -7.8e-4,0.003 l 5e-5,0.24627 -0.027,1.2e-4 a 22.499996,7.5 0.10329417 0 1 -0.79592,1.75425 z"
         style="opacity:1;fill:#b1b1b1;fill-opacity:1;stroke:#000000;stroke-width:4.5704999;stroke-linejoin:round;stroke-miterlimit:4;stroke-dasharray:none;stroke-opacity:1;paint-order:stroke fill markers" /><ellipse
         inkscape:transform-center-y="-279.52643"
         inkscape:transform-center-x="92.864621"
         transform="matrix(0.99998098,-0.00616721,0.00975181,-0.99995245,0,0)"
         ry="7.5084033"
         rx="22.46624"
         cy="-408.11578"
         cx="900.7699"
         id="path1556-3-6"
         style="opacity:1;fill:#818181;fill-opacity:1;stroke:#000000;stroke-width:1.2000761;stroke-linejoin:round;stroke-miterlimit:4;stroke-dasharray:none;stroke-opacity:1;paint-order:stroke fill markers" /><path
         inkscape:connector-curvature="0"
         id="path1556-3-6-7"
         d="m 874.09788,394.9845 c -0.004,-0.0111 -0.005,-0.0266 -0.009,-0.0381 a 0.71149904,1.8168636 0 0 0 0,-10e-4 0.71149904,1.8168636 0 0 0 0.2007,-1.26417 0.71149904,1.8168636 0 0 0 -0.10403,-0.94043 c 1.57395,-3.73027 11.28833,-6.21976 22.72118,-6.28564 11.3154,-0.0683 20.67982,2.56632 22.5,6.09082 a 0.71149904,1.8168636 0 0 0 -0.15525,1.13525 0.71149904,1.8168636 0 0 0 0.1992,1.2583 c -0.005,0.0107 -0.006,0.0216 -0.0117,0.0322 -1.32848,-3.76779 -11.06213,-6.55379 -22.66118,-6.48632 -11.29327,0.0711 -20.92132,2.83011 -22.68015,6.4995 z"
         style="opacity:1;fill:#e4e4e4;fill-opacity:1;stroke:#000000;stroke-width:1.21160078;stroke-linejoin:round;stroke-miterlimit:4;stroke-dasharray:none;stroke-opacity:1;paint-order:stroke fill markers" /><path
         inkscape:connector-curvature="0"
         id="path1556-3-6-7-6"
         d="m 874.0979,387.4845 c -0.004,-0.0111 -0.005,-0.0266 -0.009,-0.0381 a 0.71149904,1.8168636 0 0 0 0,-10e-4 0.71149904,1.8168636 0 0 0 0.2007,-1.26417 0.71149904,1.8168636 0 0 0 -0.10403,-0.94043 c 1.57395,-3.73027 11.28833,-6.21976 22.72118,-6.28564 11.3154,-0.0683 20.67982,2.56632 22.5,6.09082 a 0.71149904,1.8168636 0 0 0 -0.15525,1.13525 0.71149904,1.8168636 0 0 0 0.1992,1.2583 c -0.005,0.0107 -0.006,0.0216 -0.0117,0.0322 -1.32848,-3.76779 -11.06213,-6.55379 -22.66118,-6.48632 -11.29327,0.0711 -20.92132,2.83011 -22.68015,6.4995 z"
         style="opacity:1;fill:#e4e4e4;fill-opacity:1;stroke:#000000;stroke-width:1.21160078;stroke-linejoin:round;stroke-miterlimit:4;stroke-dasharray:none;stroke-opacity:1;paint-order:stroke fill markers" /><path
         style="opacity:1;fill:#e4e4e4;fill-opacity:1;stroke:#000000;stroke-width:1.21160078;stroke-linejoin:round;stroke-miterlimit:4;stroke-dasharray:none;stroke-opacity:1;paint-order:stroke fill markers"
         d="m 874.0979,379.9845 c -0.004,-0.0111 -0.005,-0.0266 -0.009,-0.0381 a 0.71149904,1.8168636 0 0 0 0,-10e-4 0.71149904,1.8168636 0 0 0 0.2007,-1.26417 0.71149904,1.8168636 0 0 0 -0.10403,-0.94043 c 1.57395,-3.73027 11.28833,-6.21976 22.72118,-6.28564 11.3154,-0.0683 20.67982,2.56632 22.5,6.09082 a 0.71149904,1.8168636 0 0 0 -0.15525,1.13525 0.71149904,1.8168636 0 0 0 0.1992,1.2583 c -0.005,0.0107 -0.006,0.0216 -0.0117,0.0322 -1.32848,-3.76779 -11.06213,-6.55379 -22.66118,-6.48632 -11.29327,0.0711 -20.92132,2.83011 -22.68015,6.4995 z"
         id="path1585"
         inkscape:connector-curvature="0" /><path
         inkscape:connector-curvature="0"
         id="path1587"
         d="m 874.0979,372.4845 c -0.004,-0.0111 -0.005,-0.0266 -0.009,-0.0381 a 0.71149904,1.8168636 0 0 0 0,-10e-4 0.71149904,1.8168636 0 0 0 0.2007,-1.26417 0.71149904,1.8168636 0 0 0 -0.10403,-0.94043 c 1.57395,-3.73027 11.28833,-6.21976 22.72118,-6.28564 11.3154,-0.0683 20.67982,2.56632 22.5,6.09082 a 0.71149904,1.8168636 0 0 0 -0.15525,1.13525 0.71149904,1.8168636 0 0 0 0.1992,1.2583 c -0.005,0.0107 -0.006,0.0216 -0.0117,0.0322 -1.32848,-3.76779 -11.06213,-6.55379 -22.66118,-6.48632 -11.29327,0.0711 -20.92132,2.83011 -22.68015,6.4995 z"
         style="opacity:1;fill:#e4e4e4;fill-opacity:1;stroke:#000000;stroke-width:1.21160078;stroke-linejoin:round;stroke-miterlimit:4;stroke-dasharray:none;stroke-opacity:1;paint-order:stroke fill markers" /><path
         style="opacity:1;fill:#e4e4e4;fill-opacity:1;stroke:#000000;stroke-width:1.21160078;stroke-linejoin:round;stroke-miterlimit:4;stroke-dasharray:none;stroke-opacity:1;paint-order:stroke fill markers"
         d="m 874.0979,364.9845 c -0.004,-0.0111 -0.005,-0.0266 -0.009,-0.0381 a 0.71149904,1.8168636 0 0 0 0,-10e-4 0.71149904,1.8168636 0 0 0 0.2007,-1.26417 0.71149904,1.8168636 0 0 0 -0.10403,-0.94043 c 1.57395,-3.73027 11.28833,-6.21976 22.72118,-6.28564 11.3154,-0.0683 20.67982,2.56632 22.5,6.09082 a 0.71149904,1.8168636 0 0 0 -0.15525,1.13525 0.71149904,1.8168636 0 0 0 0.1992,1.2583 c -0.005,0.0107 -0.006,0.0216 -0.0117,0.0322 -1.32848,-3.76779 -11.06213,-6.55379 -22.66118,-6.48632 -11.29327,0.0711 -20.92132,2.83011 -22.68015,6.4995 z"
         id="path1589"
         inkscape:connector-curvature="0" /><path
         inkscape:connector-curvature="0"
         id="path1591"
         d="m 874.0979,357.5595 c -0.004,-0.0111 -0.005,-0.0266 -0.009,-0.0381 a 0.71149904,1.8168636 0 0 0 0,-0.001 0.71149904,1.8168636 0 0 0 0.2007,-1.26417 0.71149904,1.8168636 0 0 0 -0.10403,-0.94043 c 1.57395,-3.73027 11.28833,-6.21976 22.72118,-6.28564 11.3154,-0.0683 20.67982,2.56632 22.5,6.09082 a 0.71149904,1.8168636 0 0 0 -0.15525,1.13525 0.71149904,1.8168636 0 0 0 0.1992,1.2583 c -0.005,0.0107 -0.006,0.0216 -0.0117,0.0322 -1.32848,-3.76779 -11.06213,-6.55379 -22.66118,-6.48632 -11.29327,0.0711 -20.92132,2.83011 -22.68015,6.4995 z"
         style="opacity:1;fill:#e4e4e4;fill-opacity:1;stroke:#000000;stroke-width:1.21160078;stroke-linejoin:round;stroke-miterlimit:4;stroke-dasharray:none;stroke-opacity:1;paint-order:stroke fill markers" /><path
         style="opacity:1;fill:#e4e4e4;fill-opacity:1;stroke:#000000;stroke-width:1.21160078;stroke-linejoin:round;stroke-miterlimit:4;stroke-dasharray:none;stroke-opacity:1;paint-order:stroke fill markers"
         d="m 874.0979,350.0595 c -0.004,-0.0111 -0.005,-0.0266 -0.009,-0.0381 a 0.71149904,1.8168636 0 0 0 0,-0.001 0.71149904,1.8168636 0 0 0 0.2007,-1.26417 0.71149904,1.8168636 0 0 0 -0.10403,-0.94043 c 1.57395,-3.73027 11.28833,-6.21976 22.72118,-6.28564 11.3154,-0.0683 20.67982,2.56632 22.5,6.09082 a 0.71149904,1.8168636 0 0 0 -0.15525,1.13525 0.71149904,1.8168636 0 0 0 0.1992,1.2583 c -0.005,0.0107 -0.006,0.0216 -0.0117,0.0322 -1.32848,-3.76779 -11.06213,-6.55379 -22.66118,-6.48632 -11.29327,0.0711 -20.92132,2.83011 -22.68015,6.4995 z"
         id="path1593"
         inkscape:connector-curvature="0" /><path
         inkscape:connector-curvature="0"
         id="path1595"
         d="m 874.0979,342.5595 c -0.004,-0.0111 -0.005,-0.0266 -0.009,-0.0381 a 0.71149904,1.8168636 0 0 0 0,-0.001 0.71149904,1.8168636 0 0 0 0.2007,-1.26417 0.71149904,1.8168636 0 0 0 -0.10403,-0.94043 c 1.57395,-3.73027 11.28833,-6.21976 22.72118,-6.28564 11.3154,-0.0683 20.67982,2.56632 22.5,6.09082 a 0.71149904,1.8168636 0 0 0 -0.15525,1.13525 0.71149904,1.8168636 0 0 0 0.1992,1.2583 c -0.005,0.0107 -0.006,0.0216 -0.0117,0.0322 -1.32848,-3.76779 -11.06213,-6.55379 -22.66118,-6.48632 -11.29327,0.0711 -20.92132,2.83011 -22.68015,6.4995 z"
         style="opacity:1;fill:#e4e4e4;fill-opacity:1;stroke:#000000;stroke-width:1.21160078;stroke-linejoin:round;stroke-miterlimit:4;stroke-dasharray:none;stroke-opacity:1;paint-order:stroke fill markers" /></g></g></g></g></svg>